<?xml version="1.0" encoding="UTF-8" standalone="no"?>
<!-- Created with Inkscape (http://www.inkscape.org/) -->

<svg
   width="793.70081"
   height="1122.5197"
   viewBox="0 0 210 297"
   version="1.1"
   id="svg5"
   inkscape:version="1.1 (c68e22c387, 2021-05-23)"
   sodipodi:docname="Sleepy Blocks Grafiken.svg"
   xmlns:inkscape="http://www.inkscape.org/namespaces/inkscape"
   xmlns:sodipodi="http://sodipodi.sourceforge.net/DTD/sodipodi-0.dtd"
   xmlns="http://www.w3.org/2000/svg"
   xmlns:svg="http://www.w3.org/2000/svg">
  <sodipodi:namedview
     id="namedview7"
     pagecolor="#ffffff"
     bordercolor="#666666"
     borderopacity="1.0"
     inkscape:pageshadow="2"
     inkscape:pageopacity="0.0"
     inkscape:pagecheckerboard="0"
     inkscape:document-units="px"
     showgrid="true"
     units="px"
     inkscape:snap-nodes="false"
     inkscape:snap-others="false"
     inkscape:zoom="3.4296751"
     inkscape:cx="316.79386"
     inkscape:cy="93.157513"
     inkscape:window-width="1920"
     inkscape:window-height="1137"
     inkscape:window-x="-8"
     inkscape:window-y="-8"
     inkscape:window-maximized="1"
     inkscape:current-layer="layer1"
     inkscape:snap-bbox="true">
    <inkscape:grid
       type="xygrid"
       id="grid465"
       empspacing="66"
       empcolor="#ff3f00"
       empopacity="0.25098039" />
  </sodipodi:namedview>
  <defs
     id="defs2" />
  <g
     inkscape:label="Ebene 1"
     inkscape:groupmode="layer"
     id="layer1">
    <g
       id="g474"
       transform="matrix(0.26458333,0,0,0.26458333,-1.1479332,-0.8348606)"
       inkscape:export-filename="C:\temp\test.png"
       inkscape:export-xdpi="96"
       inkscape:export-ydpi="96">
      <rect
         style="fill:#7f2aff;stroke-width:0.264583"
         id="rect75"
         width="64"
         height="64"
         x="4.338645"
         y="3.1553786" />
      <rect
         style="fill:#000000;stroke-width:0.470033"
         id="rect132-3-0"
         width="33.920319"
         height="9.5647411"
         x="29"
         y="32" />
      <rect
         style="fill:#000000;stroke-width:0.264583"
         id="rect132-49"
         width="10.748008"
         height="9.5647411"
         x="9.5"
         y="54" />
      <rect
         style="fill:#000000;stroke-width:0.264583"
         id="rect132"
         width="10.748008"
         height="9.5647411"
         x="9.5"
         y="10" />
      <rect
         style="fill:#000000;stroke-width:0.264583"
         id="rect132-4"
         width="10.748008"
         height="9.5647411"
         x="9.5"
         y="32" />
      <rect
         style="fill:#000000;stroke-width:0.470033"
         id="rect132-3"
         width="33.920319"
         height="9.5647411"
         x="29"
         y="10" />
      <rect
         style="fill:#000000;stroke-width:0.470033"
         id="rect132-3-5"
         width="33.920319"
         height="9.5647411"
         x="28.990042"
         y="54" />
    </g>
    <g
       id="g503"
       transform="matrix(0.26458333,0,0,0.26541798,16.314567,-0.83749423)"
       inkscape:export-filename="C:\temp\test.png"
       inkscape:export-xdpi="96"
       inkscape:export-ydpi="96">
      <rect
         style="fill:#ffffff;stroke-width:0.264583"
         id="rect489"
         width="64"
         height="64"
         x="4.338645"
         y="3.1553786" />
      <rect
         style="fill:#cccccc"
         id="rect2032-8-9"
         width="14.161935"
         height="1.1180475"
         x="9.338645"
         y="4.6813078" />
      <rect
         style="fill:#cccccc"
         id="rect2032-8-9-0"
         width="14.161935"
         height="1.1180475"
         x="9.338645"
         y="63.973026" />
      <rect
         style="fill:#cccccc"
         id="rect2213-9"
         width="1.1180496"
         height="14.907301"
         x="63.338646"
         y="49.030521" />
      <path
         style="fill:none;stroke:#000000;stroke-width:1px;stroke-linecap:butt;stroke-linejoin:miter;stroke-opacity:1"
         d="M 58.715094,121.29573 Z"
         id="path1744" />
      <rect
         style="fill:#cccccc"
         id="rect2032"
         width="14.161935"
         height="1.1180475"
         x="49.338646"
         y="5.0187912" />
      <rect
         style="fill:#cccccc"
         id="rect2032-8"
         width="14.161935"
         height="1.1180475"
         x="49.338646"
         y="63.937828" />
      <rect
         style="fill:#cccccc"
         id="rect2213"
         width="1.1180496"
         height="14.907301"
         x="63.338646"
         y="5.3914733" />
      <rect
         style="fill:#cccccc"
         id="rect2213-4"
         width="1.1180496"
         height="14.907301"
         x="8.0302677"
         y="4.6813035" />
      <rect
         style="fill:#cccccc"
         id="rect2213-3"
         width="1.1180496"
         height="14.907301"
         x="8.4029417"
         y="49.403206" />
    </g>
    <path
       sodipodi:type="spiral"
       style="fill:#808080;fill-rule:evenodd;stroke:#000000"
       id="path855"
       sodipodi:cx="157.6447"
       sodipodi:cy="24.597044"
       sodipodi:expansion="1"
       sodipodi:revolution="3"
       sodipodi:radius="24.181322"
       sodipodi:argument="-17.776876"
       sodipodi:t0="0"
       d="m 157.6447,24.597044 c 0.57926,1.065085 -1.14993,1.306302 -1.77024,0.962763 -1.68101,-0.930969 -1.28939,-3.320745 -0.15529,-4.503246 2.02865,-2.115219 5.46752,-1.417203 7.23625,0.652193 2.59569,3.036922 1.55802,7.646748 -1.45967,9.969257 -4.0221,3.095539 -9.83793,1.704916 -12.70226,-2.26715 -3.60447,-4.998441 -1.85508,-12.034919 3.07463,-15.435267 5.97054,-4.1182781 14.2352,-2.007159 18.16827,3.882106 4.63499,6.940296 2.16044,16.437531 -4.68958,20.901278 -7.90863,5.153572 -18.64124,2.314519 -23.63429,-5.497064 -5.67341,-8.876017 -2.46916,-20.845903 6.30455,-26.3672871 9.84276,-6.19415811 23.05127,-2.6242084 29.10029,7.1120201 6.71556,10.809059 2.77956,25.257168 -7.9195,31.833298"
       transform="matrix(0.35017799,0,0,0.35888407,-12.136837,-0.31657362)" />
    <path
       style="fill:#808080"
       id="path1411"
       sodipodi:type="arc"
       sodipodi:cx="54.085159"
       sodipodi:cy="9.4168329"
       sodipodi:rx="0.44372508"
       sodipodi:ry="1.7255975"
       sodipodi:start="0"
       sodipodi:end="0.035721479"
       sodipodi:arc-type="slice"
       d="m 54.528884,9.4168329 a 0.44372508,1.7255975 0 0 1 -2.83e-4,0.061628 l -0.443442,-0.061628 z" />
    <path
       style="fill:#808080"
       id="path1413"
       sodipodi:type="arc"
       sodipodi:cx="60.987549"
       sodipodi:cy="8.627986"
       sodipodi:rx="7.7405372"
       sodipodi:ry="7.5433264"
       sodipodi:start="0"
       sodipodi:end="6.2542604"
       sodipodi:arc-type="arc"
       d="m 68.728086,8.627986 a 7.7405372,7.5433264 0 0 1 -7.684564,7.543129 7.7405372,7.5433264 0 0 1 -7.795701,-7.4340378 7.7405372,7.5433264 0 0 1 7.57182,-7.6506427 7.7405372,7.5433264 0 0 1 7.905207,7.3233919"
       sodipodi:open="true" />
  </g>
</svg>
