<?xml version="1.0" encoding="UTF-8" standalone="no"?>
<svg
   xmlns:dc="http://purl.org/dc/elements/1.1/"
   xmlns:cc="http://creativecommons.org/ns#"
   xmlns:rdf="http://www.w3.org/1999/02/22-rdf-syntax-ns#"
   xmlns:svg="http://www.w3.org/2000/svg"
   xmlns="http://www.w3.org/2000/svg"
   xmlns:xlink="http://www.w3.org/1999/xlink"
   xmlns:sodipodi="http://sodipodi.sourceforge.net/DTD/sodipodi-0.dtd"
   xmlns:inkscape="http://www.inkscape.org/namespaces/inkscape"
   inkscape:version="1.0 (4035a4fb49, 2020-05-01)"
   sodipodi:docname="vector_backgrounds.svg"
   id="svg516"
   version="1.1">
  <metadata
     id="metadata520">
    <rdf:RDF>
      <cc:Work
         rdf:about="">
        <dc:format>image/svg+xml</dc:format>
        <dc:type
           rdf:resource="http://purl.org/dc/dcmitype/StillImage" />
        <dc:title></dc:title>
      </cc:Work>
    </rdf:RDF>
  </metadata>
  <sodipodi:namedview
     inkscape:snap-global="false"
     inkscape:current-layer="svg516"
     inkscape:window-maximized="1"
     inkscape:window-y="-9"
     inkscape:window-x="-9"
     inkscape:cy="293.60874"
     inkscape:cx="1925.4327"
     inkscape:zoom="1.0963453"
     showgrid="false"
     id="namedview518"
     inkscape:window-height="1001"
     inkscape:window-width="1920"
     inkscape:pageshadow="2"
     inkscape:pageopacity="0"
     guidetolerance="10"
     gridtolerance="10"
     objecttolerance="10"
     borderopacity="1"
     bordercolor="#666666"
     pagecolor="#ffffff" />
  <defs
     id="defs182">
    <linearGradient
       id="gradient0"
       gradientTransform="matrix(0,0.11956787,-0.1217041,0,296,792.4)"
       spreadMethod="pad"
       x2="819.2"
       x1="-819.2"
       gradientUnits="userSpaceOnUse">
      <stop
         id="stop2"
         stop-color="#FFFFFF"
         offset="0" />
      <stop
         id="stop4"
         stop-color="#CFEFFC"
         offset="1" />
    </linearGradient>
    <linearGradient
       id="gradient1"
       gradientTransform="matrix(0,0.11956787,-0.1217041,0,818,792.4)"
       spreadMethod="pad"
       x2="819.2"
       x1="-819.2"
       gradientUnits="userSpaceOnUse">
      <stop
         id="stop7"
         stop-color="#FFFFFF"
         offset="0" />
      <stop
         id="stop9"
         stop-color="#CFEFFC"
         offset="1" />
    </linearGradient>
    <linearGradient
       id="gradient2"
       gradientTransform="matrix(0,0.11956787,0.1217041,0,1340,792.4)"
       spreadMethod="pad"
       x2="819.2"
       x1="-819.2"
       gradientUnits="userSpaceOnUse">
      <stop
         id="stop12"
         stop-color="#FFFFFF"
         offset="0" />
      <stop
         id="stop14"
         stop-color="#CFEFFC"
         offset="1" />
    </linearGradient>
    <linearGradient
       id="gradient3"
       gradientTransform="matrix(0,0.11956787,0.1217041,0,1862,832.4)"
       spreadMethod="pad"
       x2="819.2"
       x1="-819.2"
       gradientUnits="userSpaceOnUse">
      <stop
         id="stop17"
         stop-color="#FFFFFF"
         offset="0" />
      <stop
         id="stop19"
         stop-color="#CFEFFC"
         offset="1" />
    </linearGradient>
    <linearGradient
       id="gradient4"
       gradientTransform="matrix(0,0.11956787,0.1217041,0,1862.05,1324.4)"
       spreadMethod="pad"
       x2="819.2"
       x1="-819.2"
       gradientUnits="userSpaceOnUse">
      <stop
         id="stop22"
         stop-color="#FFFFFF"
         offset="0" />
      <stop
         id="stop24"
         stop-color="#CFEFFC"
         offset="1" />
    </linearGradient>
    <linearGradient
       id="gradient5"
       gradientTransform="matrix(0,0.11956787,-0.1217041,0,818,1314.4)"
       spreadMethod="pad"
       x2="819.2"
       x1="-819.2"
       gradientUnits="userSpaceOnUse">
      <stop
         id="stop27"
         stop-color="#FFFFFF"
         offset="0" />
      <stop
         id="stop29"
         stop-color="#CFEFFC"
         offset="1" />
    </linearGradient>
    <linearGradient
       id="gradient6"
       gradientTransform="matrix(0,0.11956787,0.1217041,0,330.29093,195.96304)"
       spreadMethod="pad"
       x2="819.2"
       x1="-819.2"
       gradientUnits="userSpaceOnUse">
      <stop
         id="stop32"
         stop-color="#FFFFFF"
         offset="0" />
      <stop
         id="stop34"
         stop-color="#CFEFFC"
         offset="1" />
    </linearGradient>
    <linearGradient
       id="gradient7"
       gradientTransform="matrix(-0.00398254,-0.00450134,0.00450134,-0.00398254,448.3,1237.7)"
       spreadMethod="pad"
       x2="819.2"
       x1="-819.2"
       gradientUnits="userSpaceOnUse">
      <stop
         id="stop37"
         stop-color="#23BF76"
         offset="0" />
      <stop
         id="stop39"
         stop-color="#1EA666"
         offset="1" />
    </linearGradient>
    <linearGradient
       id="gradient8"
       gradientTransform="matrix(0.00233459,-0.00205994,0.00205994,0.00233459,441.6,1309.3)"
       spreadMethod="pad"
       x2="819.2"
       x1="-819.2"
       gradientUnits="userSpaceOnUse">
      <stop
         id="stop42"
         stop-color="#23BF76"
         offset="0" />
      <stop
         id="stop44"
         stop-color="#1EA666"
         offset="1" />
    </linearGradient>
    <linearGradient
       id="gradient9"
       gradientTransform="matrix(0.00233459,-0.00205994,0.00205994,0.00233459,454.7,1226.35)"
       spreadMethod="pad"
       x2="819.2"
       x1="-819.2"
       gradientUnits="userSpaceOnUse">
      <stop
         id="stop47"
         stop-color="#23BF76"
         offset="0" />
      <stop
         id="stop49"
         stop-color="#1EA666"
         offset="1" />
    </linearGradient>
    <linearGradient
       id="gradient10"
       gradientTransform="matrix(0.00233459,-0.00205994,0.00205994,0.00233459,470.4,1267.2)"
       spreadMethod="pad"
       x2="819.2"
       x1="-819.2"
       gradientUnits="userSpaceOnUse">
      <stop
         id="stop52"
         stop-color="#23BF76"
         offset="0" />
      <stop
         id="stop54"
         stop-color="#1EA666"
         offset="1" />
    </linearGradient>
    <linearGradient
       id="gradient11"
       gradientTransform="matrix(0.00398254,0.00450134,-0.00450134,0.00398254,467.4,1277.85)"
       spreadMethod="pad"
       x2="819.2"
       x1="-819.2"
       gradientUnits="userSpaceOnUse">
      <stop
         id="stop57"
         stop-color="#23BF76"
         offset="0" />
      <stop
         id="stop59"
         stop-color="#1EA666"
         offset="1" />
    </linearGradient>
    <linearGradient
       id="gradient12"
       gradientTransform="matrix(0.0020752,-0.00234985,0.00234985,0.0020752,377.05,1248.35)"
       spreadMethod="pad"
       x2="819.2"
       x1="-819.2"
       gradientUnits="userSpaceOnUse">
      <stop
         id="stop62"
         stop-color="#23BF76"
         offset="0" />
      <stop
         id="stop64"
         stop-color="#1EA666"
         offset="1" />
    </linearGradient>
    <linearGradient
       id="gradient13"
       gradientTransform="matrix(-0.00450134,-0.00398254,0.00398254,-0.00450134,372.05,1260.35)"
       spreadMethod="pad"
       x2="819.2"
       x1="-819.2"
       gradientUnits="userSpaceOnUse">
      <stop
         id="stop67"
         stop-color="#23BF76"
         offset="0" />
      <stop
         id="stop69"
         stop-color="#1EA666"
         offset="1" />
    </linearGradient>
    <linearGradient
       id="gradient14"
       gradientTransform="matrix(0.0020752,-0.00234985,0.00234985,0.0020752,397.6,1286.95)"
       spreadMethod="pad"
       x2="819.2"
       x1="-819.2"
       gradientUnits="userSpaceOnUse">
      <stop
         id="stop72"
         stop-color="#23BF76"
         offset="0" />
      <stop
         id="stop74"
         stop-color="#1EA666"
         offset="1" />
    </linearGradient>
    <linearGradient
       id="gradient15"
       gradientTransform="matrix(0.00450134,0.00398254,-0.00398254,0.00450134,395.9,1297.9)"
       spreadMethod="pad"
       x2="819.2"
       x1="-819.2"
       gradientUnits="userSpaceOnUse">
      <stop
         id="stop77"
         stop-color="#23BF76"
         offset="0" />
      <stop
         id="stop79"
         stop-color="#1EA666"
         offset="1" />
    </linearGradient>
    <linearGradient
       id="gradient16"
       gradientTransform="matrix(0.0020752,-0.00234985,0.00234985,0.0020752,374.05,1332.3)"
       spreadMethod="pad"
       x2="819.2"
       x1="-819.2"
       gradientUnits="userSpaceOnUse">
      <stop
         id="stop82"
         stop-color="#23BF76"
         offset="0" />
      <stop
         id="stop84"
         stop-color="#1EA666"
         offset="1" />
    </linearGradient>
    <linearGradient
       id="gradient17"
       gradientTransform="matrix(0.00210571,-0.00231934,0.00231934,0.00210571,82.85,1236.75)"
       spreadMethod="pad"
       x2="819.2"
       x1="-819.2"
       gradientUnits="userSpaceOnUse">
      <stop
         id="stop87"
         stop-color="#23BF76"
         offset="0" />
      <stop
         id="stop89"
         stop-color="#1EA666"
         offset="1" />
    </linearGradient>
    <linearGradient
       id="gradient18"
       gradientTransform="matrix(-0.00445557,-0.00405884,0.00405884,-0.00445557,77.7,1248.7)"
       spreadMethod="pad"
       x2="819.2"
       x1="-819.2"
       gradientUnits="userSpaceOnUse">
      <stop
         id="stop92"
         stop-color="#23BF76"
         offset="0" />
      <stop
         id="stop94"
         stop-color="#1EA666"
         offset="1" />
    </linearGradient>
    <linearGradient
       id="gradient19"
       gradientTransform="matrix(0.00210571,-0.00231934,0.00231934,0.00210571,102.9,1275.65)"
       spreadMethod="pad"
       x2="819.2"
       x1="-819.2"
       gradientUnits="userSpaceOnUse">
      <stop
         id="stop97"
         stop-color="#23BF76"
         offset="0" />
      <stop
         id="stop99"
         stop-color="#1EA666"
         offset="1" />
    </linearGradient>
    <linearGradient
       id="gradient20"
       gradientTransform="matrix(0.00445557,0.00405884,-0.00405884,0.00445557,101,1286.55)"
       spreadMethod="pad"
       x2="819.2"
       x1="-819.2"
       gradientUnits="userSpaceOnUse">
      <stop
         id="stop102"
         stop-color="#23BF76"
         offset="0" />
      <stop
         id="stop104"
         stop-color="#1EA666"
         offset="1" />
    </linearGradient>
    <linearGradient
       id="gradient21"
       gradientTransform="matrix(0.00210571,-0.00231934,0.00231934,0.00210571,78.75,1320.65)"
       spreadMethod="pad"
       x2="819.2"
       x1="-819.2"
       gradientUnits="userSpaceOnUse">
      <stop
         id="stop107"
         stop-color="#23BF76"
         offset="0" />
      <stop
         id="stop109"
         stop-color="#1EA666"
         offset="1" />
    </linearGradient>
    <linearGradient
       id="gradient22"
       gradientTransform="matrix(0,0.11956787,0.1217041,0,1340.05,1294.4)"
       spreadMethod="pad"
       x2="819.2"
       x1="-819.2"
       gradientUnits="userSpaceOnUse">
      <stop
         id="stop112"
         stop-color="#FFFFFF"
         offset="0" />
      <stop
         id="stop114"
         stop-color="#CFEFFC"
         offset="1" />
    </linearGradient>
    <linearGradient
       id="gradient23"
       gradientTransform="matrix(1.0681152e-4,-0.00848389,-0.00976563,-1.373291e-4,1537.35,1266.2)"
       spreadMethod="pad"
       x2="819.2"
       x1="-819.2"
       gradientUnits="userSpaceOnUse">
      <stop
         id="stop117"
         stop-color="#F78D3B"
         offset="0" />
      <stop
         id="stop119"
         stop-color="#E58032"
         offset="1" />
    </linearGradient>
    <linearGradient
       id="gradient24"
       gradientTransform="matrix(-0.0019989,-0.01039124,-0.01199341,0.00230408,1504.2,1305.95)"
       spreadMethod="pad"
       x2="819.2"
       x1="-819.2"
       gradientUnits="userSpaceOnUse">
      <stop
         id="stop122"
         stop-color="#F78D3B"
         offset="0" />
      <stop
         id="stop124"
         stop-color="#E58032"
         offset="1" />
    </linearGradient>
    <linearGradient
       id="gradient25"
       gradientTransform="matrix(0.00344849,-0.00708008,0.00817871,0.00396729,1541.95,1312.25)"
       spreadMethod="pad"
       x2="819.2"
       x1="-819.2"
       gradientUnits="userSpaceOnUse">
      <stop
         id="stop127"
         stop-color="#F78D3B"
         offset="0" />
      <stop
         id="stop129"
         stop-color="#E58032"
         offset="1" />
    </linearGradient>
    <linearGradient
       id="gradient26"
       gradientTransform="matrix(-7.6293945e-5,-0.00628662,0.00723267,-1.0681152e-4,1449.9,1284.15)"
       spreadMethod="pad"
       x2="819.2"
       x1="-819.2"
       gradientUnits="userSpaceOnUse">
      <stop
         id="stop132"
         stop-color="#F78D3B"
         offset="0" />
      <stop
         id="stop134"
         stop-color="#E58032"
         offset="1" />
    </linearGradient>
    <linearGradient
       id="gradient27"
       gradientTransform="matrix(0.0014801,-0.00770569,0.00888062,0.00170898,1474.45,1313.6)"
       spreadMethod="pad"
       x2="819.2"
       x1="-819.2"
       gradientUnits="userSpaceOnUse">
      <stop
         id="stop137"
         stop-color="#F78D3B"
         offset="0" />
      <stop
         id="stop139"
         stop-color="#E58032"
         offset="1" />
    </linearGradient>
    <linearGradient
       id="gradient28"
       gradientTransform="matrix(-0.00254822,-0.00524902,-0.00605774,0.00294495,1446.5,1318.25)"
       spreadMethod="pad"
       x2="819.2"
       x1="-819.2"
       gradientUnits="userSpaceOnUse">
      <stop
         id="stop142"
         stop-color="#F78D3B"
         offset="0" />
      <stop
         id="stop144"
         stop-color="#E58032"
         offset="1" />
    </linearGradient>
    <linearGradient
       id="gradient29"
       gradientTransform="matrix(-7.6293945e-5,-0.00628662,0.00723267,-1.0681152e-4,1003.7434,1632.3422)"
       spreadMethod="pad"
       x2="819.2"
       x1="-819.2"
       gradientUnits="userSpaceOnUse">
      <stop
         id="stop147"
         stop-color="#F78D3B"
         offset="0" />
      <stop
         id="stop149"
         stop-color="#E58032"
         offset="1" />
    </linearGradient>
    <linearGradient
       id="gradient30"
       gradientTransform="matrix(0.0014801,-0.00770569,0.00888062,0.00170898,1028.2934,1661.7922)"
       spreadMethod="pad"
       x2="819.2"
       x1="-819.2"
       gradientUnits="userSpaceOnUse">
      <stop
         id="stop152"
         stop-color="#F78D3B"
         offset="0" />
      <stop
         id="stop154"
         stop-color="#E58032"
         offset="1" />
    </linearGradient>
    <linearGradient
       id="gradient31"
       gradientTransform="matrix(-0.00254822,-0.00524902,-0.00605774,0.00294495,1000.3434,1666.4422)"
       spreadMethod="pad"
       x2="819.2"
       x1="-819.2"
       gradientUnits="userSpaceOnUse">
      <stop
         id="stop157"
         stop-color="#F78D3B"
         offset="0" />
      <stop
         id="stop159"
         stop-color="#E58032"
         offset="1" />
    </linearGradient>
    <linearGradient
       id="gradient32"
       gradientTransform="matrix(0,0.11956787,0.1217041,0,808,410.3)"
       spreadMethod="pad"
       x2="819.2"
       x1="-819.2"
       gradientUnits="userSpaceOnUse">
      <stop
         id="stop162"
         stop-color="#FFFFFF"
         offset="0" />
      <stop
         id="stop164"
         stop-color="#CFEFFC"
         offset="1" />
    </linearGradient>
    <linearGradient
       id="gradient33"
       gradientTransform="matrix(0,-0.13543701,0.13549805,0,1605.6557,154.89692)"
       spreadMethod="pad"
       x2="819.2"
       x1="-819.2"
       gradientUnits="userSpaceOnUse">
      <stop
         id="stop167"
         stop-color="#EAF8FD"
         offset="0" />
      <stop
         id="stop169"
         stop-color="#B7E7FA"
         offset="1" />
    </linearGradient>
    <linearGradient
       id="gradient34"
       gradientTransform="matrix(0,-0.08477783,0.08483887,0,1433.1557,196.39692)"
       spreadMethod="pad"
       x2="819.2"
       x1="-819.2"
       gradientUnits="userSpaceOnUse">
      <stop
         id="stop172"
         stop-color="#EAF8FD"
         offset="0" />
      <stop
         id="stop174"
         stop-color="#B7E7FA"
         offset="1" />
    </linearGradient>
    <linearGradient
       id="gradient35"
       gradientTransform="matrix(0,-0.10864258,0.10742187,0,1247.1557,177.89692)"
       spreadMethod="pad"
       x2="819.2"
       x1="-819.2"
       gradientUnits="userSpaceOnUse">
      <stop
         id="stop177"
         stop-color="#EAF8FD"
         offset="0" />
      <stop
         id="stop179"
         stop-color="#B7E7FA"
         offset="1" />
    </linearGradient>
    <linearGradient
       spreadMethod="pad"
       x2="819.2"
       x1="-819.2"
       gradientTransform="matrix(0,0.11956787,0.1217041,0,2075.32,195.96304)"
       gradientUnits="userSpaceOnUse"
       id="linearGradient1641"
       xlink:href="#gradient6"
       inkscape:collect="always" />
    <linearGradient
       spreadMethod="pad"
       x2="819.2"
       x1="-819.2"
       gradientTransform="matrix(0,0.11956787,0.1217041,0,330.29093,1044.364)"
       gradientUnits="userSpaceOnUse"
       id="linearGradient1701"
       xlink:href="#gradient6"
       inkscape:collect="always" />
    <linearGradient
       gradientUnits="userSpaceOnUse"
       x1="-819.20001"
       x2="819.20001"
       spreadMethod="pad"
       gradientTransform="matrix(0,0.03027344,-0.02832031,0,525.24169,-115.16064)"
       id="gradient30-0">
      <stop
         offset="0"
         stop-color="#23BF76"
         id="stop152-1" />
      <stop
         offset="1"
         stop-color="#1EA666"
         id="stop154-4" />
    </linearGradient>
  </defs>
  <path
     stroke="none"
     fill="#cfeffc"
     d="m 74.29093,47.563036 h 512 V 559.56304 h -512 V 47.563036"
     id="path340" />
  <path
     stroke="none"
     fill="#def5ff"
     d="m 586.29093,139.76304 v 125.9 h -512 v -124.3 q 0.2,-7.85 5.8,-13.45 5,-5 11.75,-5.7 1.05,-1.55 2.45,-2.95 5.85,-5.85 14,-5.85 3.5,0 6.55,1.1 4.1,1.4 7.45,4.75 4.65,4.6 5.55,10.8 5.35,0.65 10.1,2.55 1.15,-3.05 3.85,-5.5 4.75,-4.45 11.55,-4.45 6.75,0 11.55,4.45 l 1.35,1.4 q 11.85,-10.35 28.4,-10.35 l 6.5,0.45 0.5,-0.5 q 4.75,-4.45 11.55,-4.45 3.85,0 7.1,1.5 h 0.05 l -0.05,-0.25 -0.05,-1.05 v -0.35 -0.55 q 0.2,-5.95 4.8,-10.25 4.8,-4.450004 11.55,-4.450004 l 2.85,0.25 q 1.15,-3.55 4.15,-6.35 4.8,-4.45 11.55,-4.45 6.8,0 11.55,4.45 3.3,3.05 4.35,6.95 10.6,2.050004 18.9,9.050004 4.25,-3.1 9.95,-3.1 6.75,0 11.55,4.45 3.5,3.25 4.45,7.55 l 8.8,-0.85 2.9,0.1 q 1.05,-3.85 4.25,-6.85 4.75,-4.45 11.55,-4.45 6.8,0 11.6,4.45 l 0.3,0.35 q 2.65,-4.15 6.55,-7.8 12.2,-11.400004 29.5,-11.400004 1.15,-2.7 3.5,-4.85 4.8,-4.45 11.6,-4.45 l 4.3,0.5 q 0.45,-5.5 4.75,-9.5 4.8,-4.45 11.55,-4.45 4.85,0 8.6,2.25 8.35,-3.85 18.4,-3.85 17.35,0 29.6,11.4 5.65,5.25 8.7,11.55 l 3.55,-0.35 q 6.75,0 11.55,4.45 4.5,4.2 4.75,10.100004 v 0.65 l -0.05,1.3 q -0.2,2.7 -1.4,5.1 0.85,1.75 1.2,3.65 6.3,2.8 11.6,7.75 2.25,2.1 4.1,4.4 3.85,-2.25 8.7,-2.25 6.8,0 11.55,4.45 3.55,3.3 4.45,7.6 h 0.8 q 9.75,0 17.9,3.65 3.45,-1.7 7.6,-1.7 4.2,0 7.65,1.75"
     id="path342" />
  <path
     stroke="none"
     fill="url(#gradient6)"
     d="m 74.29093,169.76304 q 3.45,-1.75 7.65,-1.75 4.15,0 7.6,1.7 8.15,-3.65 17.9,-3.65 h 0.8 q 0.9,-4.3 4.45,-7.6 4.75,-4.45 11.55,-4.45 4.85,0 8.7,2.25 l 4.1,-4.4 q 5.3,-4.95 11.6,-7.75 0.35,-1.9 1.2,-3.65 -1.2,-2.4 -1.4,-5.1 l -0.05,-1.3 v -0.65 q 0.25,-5.9 4.75,-10.1 4.8,-4.45 11.55,-4.45 l 3.55,0.35 q 3.05,-6.3 8.7,-11.55 12.25,-11.400004 29.6,-11.400004 10.05,0 18.4,3.850004 3.75,-2.250004 8.6,-2.250004 6.75,0 11.55,4.450004 4.3,4 4.75,9.5 l 4.3,-0.5 q 6.8,0 11.6,4.45 2.35,2.15 3.5,4.85 17.3,0 29.5,11.4 3.9,3.65 6.55,7.8 l 0.3,-0.35 q 4.8,-4.45 11.6,-4.45 6.8,0 11.55,4.45 3.2,3 4.25,6.85 l 2.9,-0.1 8.8,0.85 q 0.95,-4.3 4.45,-7.55 4.8,-4.45 11.55,-4.45 5.7,0 9.95,3.1 8.3,-7 18.9,-9.05 1.05,-3.9 4.35,-6.95 4.75,-4.45 11.55,-4.45 6.75,0 11.55,4.45 3,2.8 4.15,6.35 l 2.85,-0.25 q 6.75,0 11.55,4.45 4.6,4.3 4.8,10.25 v 0.55 0.35 l -0.05,1.05 -0.05,0.25 h 0.05 q 3.25,-1.5 7.1,-1.5 6.8,0 11.55,4.45 l 0.5,0.5 6.5,-0.45 q 16.55,0 28.4,10.35 l 1.35,-1.4 q 4.8,-4.45 11.55,-4.45 6.8,0 11.55,4.45 2.7,2.45 3.85,5.5 4.75,-1.9 10.1,-2.55 0.9,-6.2 5.55,-10.8 3.35,-3.35 7.45,-4.75 3.05,-1.1 6.55,-1.1 8.15,0 14,5.85 1.4,1.4 2.45,2.95 6.75,0.7 11.75,5.7 5.6,5.6 5.8,13.45 v 124.3 h -512 v -125.9"
     id="path344"
     style="fill:url(#gradient6)" />
  <path
     sodipodi:nodetypes="cccccccccsccc"
     stroke="none"
     fill="#eaf8fd"
     d="m 586.24093,235.81304 v 147.6681 l -511.95,-0.7635 v -146.9046 c 11.633333,2.0333 23.066667,4.3167 34.3,6.85 19.63333,4.4 39.71667,4.7333 60.25,1 19.03333,-3.4667 38.26667,-6.6167 57.7,-9.45 19.96667,-2.9333 40.18333,-3.4167 60.65,-1.45 20.43333,2 39.95,5.1667 58.55,9.5 18.83333,4.4 38.75,6.6333 59.75,6.7 21,0.067 41.31667,-1.65 60.95,-5.15 19.03333,-3.4333 38.43333,-6.3 58.2,-8.6 20.66667,-2.3667 41.2,-2.1667 61.6,0.6"
     id="path346" />
  <path
     style="fill:#e4e4e4;fill-opacity:1"
     stroke="none"
     fill="#c9efff"
     d="m 73.640929,310.11304 v -8.05 h 0.25 q 4,0.1 6.85,3.35 l 14.95,16.95 15.900001,-18.05 q 1.25,-1.45 2.75,-2.25 1.95,-1.1 4.3,-1.1 2.35,0 4.35,1.1 1.45,0.8 2.75,2.25 l 20.9,23.75 q 2.9,-3.3 7,-3.3 4.15,0 7.1,3.35 l 12.9,14.65 87.95,-99.8 q 2.9,-3.35 7.05,-3.35 4.15,0 7.1,3.35 l 72.9,82.75 47.95,-54.35 q 2.9,-3.35 7.05,-3.35 4.15,0 7.1,3.35 l 32.9,37.35 17.95,-20.35 q 2.9,-3.35 7.05,-3.35 4.15,0 7.1,3.35 l 37.9,43.05 12.95,-14.65 q 2.9,-3.35 7.05,-3.35 4.15,0 7.1,3.35 l 13.9,15.8 23.95,-27.15 q 2.15,-2.5 5.05,-3.1 l 1.75,-0.25 h 0.25 v 8.05 h -0.25 l -1.75,0.2 q -2.9,0.55 -5.05,2.75 l -23.95,23.9 -13.9,-13.9 q -2.95,-2.95 -7.1,-2.95 -4.15,0 -7.05,2.95 l -12.95,12.9 -37.9,-37.9 q -2.95,-2.95 -7.1,-2.95 -4.15,0 -7.05,2.95 l -17.95,17.9 -32.9,-32.9 q -2.95,-2.95 -7.1,-2.95 -4.15,0 -7.05,2.95 l -47.95,47.9 -72.9,-72.9 q -2.95,-2.95 -7.1,-2.95 -4.15,0 -7.05,2.95 l -87.95,87.9 -12.9,-12.9 q -2.95,-2.95 -7.1,-2.95 -4.1,0 -7,2.9 l -20.9,-20.9 q -1.3,-1.3 -2.75,-2 -2,-0.95 -4.35,-0.95 -2.35,0 -4.3,0.95 -1.5,0.7 -2.75,2 l -15.900001,15.9 -14.95,-14.95 q -2.85,-2.85 -6.85,-2.95 h -0.25"
     id="path496" />
  <path
     style="fill:#d9d9d9;fill-opacity:1"
     stroke="none"
     fill="#b7e7fa"
     d="m 73.640929,310.11304 h 0.25 q 4,0.1 6.85,2.95 l 14.95,14.95 15.900001,-15.9 q 1.25,-1.3 2.75,-2 1.95,-0.95 4.3,-0.95 2.35,0 4.35,0.95 1.45,0.7 2.75,2 l 20.9,20.9 q 2.9,-2.9 7,-2.9 4.15,0 7.1,2.95 l 12.9,12.9 87.95,-87.9 q 2.9,-2.95 7.05,-2.95 4.15,0 7.1,2.95 l 72.9,72.9 47.95,-47.9 q 2.9,-2.95 7.05,-2.95 4.15,0 7.1,2.95 l 32.9,32.9 17.95,-17.9 q 2.9,-2.95 7.05,-2.95 4.15,0 7.1,2.95 l 37.9,37.9 12.95,-12.9 q 2.9,-2.95 7.05,-2.95 4.15,0 7.1,2.95 l 13.9,13.9 23.95,-23.9 q 2.15,-2.2 5.05,-2.75 l 1.75,-0.2 h 0.25 v 130.05 H 73.640929 v -130.05"
     id="path498" />
  <path
     style="fill:#8ee670;fill-opacity:1"
     stroke="none"
     fill="#27d483"
     d="m 74.34093,370.01304 v -6.2 q 30.6,-4.15 61.6,-0.6 29.65,3.45 58.2,8.6 29.45,5.25 60.95,5.15 31.5,-0.1 59.75,-6.7 27.9,-6.5 58.55,-9.5 30.7,-2.95 60.65,1.45 29.15,4.25 57.7,9.45 30.8,5.6 60.25,-1 16.85,-3.8 34.3,-6.85 v 6.2 q -17.45,2.6 -34.3,5.85 -29.45,5.65 -60.25,0.9 -28.55,-4.45 -57.7,-8.1 -29.95,-3.75 -60.65,-1.2 -30.65,2.5 -58.55,8.1 -28.25,5.6 -59.75,5.7 -31.5,0.1 -60.95,-4.4 -28.55,-4.4 -58.2,-7.3 -31,-3.05 -61.6,0.45"
     id="path408" />
  <path
     style="fill:#4abf23;fill-opacity:1"
     stroke="none"
     fill="#23bf76"
     d="m 74.34093,370.01304 q 30.6,-3.5 61.6,-0.45 29.65,2.9 58.2,7.3 29.45,4.5 60.95,4.4 31.5,-0.1 59.75,-5.7 27.9,-5.6 58.55,-8.1 30.7,-2.55 60.65,1.2 29.15,3.65 57.7,8.1 30.8,4.75 60.25,-0.9 16.85,-3.25 34.3,-5.85 v 189.55 h -511.95 v -189.55"
     id="path410" />
  <path
     style="fill:#8bed56;fill-opacity:1"
     stroke="none"
     fill="#23bf76"
     d="m 192.94093,341.71304 q -9.9,13.95 -11.95,26.35 10.65,-2.85 18.8,3.95 -10.25,5.15 -18.35,13.7 h -18.45 q -6.8,-6.55 -15.2,-9.85 6.2,-5.3 13.7,-2.95 -1.95,-9.3 -12.15,-19.45 13.3,0 19.3,7.8 4.5,-19.55 24.3,-19.55 m -17.05,33.95 -0.05,-0.15 -0.25,0.1 0.3,0.05"
     id="path412" />
  <path
     style="fill:#5ddf18;fill-opacity:1"
     stroke="none"
     fill="#23bf76"
     d="m 243.69093,355.11304 q -4.15,8.65 -6.55,19.45 5.9,-2.9 10.35,-0.9 -5.45,2.4 -8.85,7.2 h -14.25 q -2.15,-7.25 -7.1,-10.5 5,-2.2 10,3.5 -1.8,-11.05 -4.75,-19.95 5.9,4.95 9.55,13.4 5.05,-8.15 11.6,-12.2"
     id="path414" />
  <path
     style="fill:#60e318;fill-opacity:1"
     stroke="none"
     fill="#23bf76"
     d="m 468.44093,348.61304 q -9.9,13.95 -11.95,26.35 10.65,-2.85 18.8,3.95 -10.25,5.15 -18.35,13.7 h -18.45 q -6.8,-6.55 -15.2,-9.85 6.2,-5.3 13.7,-2.95 -1.95,-9.3 -12.15,-19.45 13.3,0 19.3,7.8 4.5,-19.55 24.3,-19.55 m -17.05,33.95 -0.05,-0.15 -0.25,0.1 0.3,0.05"
     id="path416" />
  <g
     transform="translate(-887.35247,-1344.9792)"
     id="g1515">
    <path
       id="path464"
       d="m 996.99341,1675.1422 c -4,-4.3 -6.55,-9.3667 -7.65,-15.2 l -0.05,-0.5 h 3.55 l -1.15,-3.7 c -1.46667,-5.3 -1.86667,-10.6167 -1.2,-15.95 l 3,1.65 -0.3,-3.7 c -0.6,-10.1333 0.0667,-20.1667 2,-30.1 l 4.05,3.15 0.05,-0.2 c 0.63333,-8.3333 2.56669,-15.85 5.79999,-22.55 l 2.7,6.4 2.15,-1.6 1.1,-0.5 c 0.9,-0.3667 1.8,-0.55 2.7,-0.55 l 1.8,0.25 1.4,-7.5 c 3.5333,5.9333 6.2833,11.2833 8.25,16.05 l 1,2.55 c 1.0667,3 1.8,5.7333 2.2,8.2 l 3.15,-3.95 c 1.6333,8.0667 2.1,16.3 1.4,24.7 l 4.3,-2.45 c 0.5333,8.7333 0.05,16.95 -1.45,24.65 l -0.15,0.7 -0.8,3.55 v 0.05 l 4,-1.25 -0.5,1.9 c -1.0667,3.8 -2.65,7.2 -4.75,10.2 l 3.5,-0.4 -3.1,4 -2.25,1.65 c -4.9,3.1667 -10.8167,4.75 -17.75,4.75 -6.6,0 -12.2667,-1.4333 -16.99999,-4.3"
       fill="#f78d3b"
       stroke="none"
       style="fill:#21d12f;fill-opacity:1"
       sodipodi:nodetypes="ccccccccccccccccccccccccccccccccccsc" />
    <path
       id="path470"
       d="m 1033.9934,1673.0422 q -4.95,5.5 -12.05,8.55 l -0.85,0.3 -2.2,0.7 -0.5,0.1 -1.8,0.3 -2.85,0.2 h -0.5 l -1.05,-0.1 -2.7,-0.3 -0.75,-0.2 q -3.75,-0.85 -6.85,-3.05 -2.74999,-2.05 -4.89999,-4.4 7.09999,4.3 16.99999,4.3 10.4,0 17.75,-4.75 l 2.25,-1.65"
       fill="#e58032"
       stroke="none"
       style="fill:#16ad23;fill-opacity:1" />
    <path
       id="path472"
       d="m 1018.8934,1682.5922 -0.9,2.6 -0.1,0.25 -0.6,1.95 -2.45,-1.4 1.75,-3 1.8,-0.3 0.5,-0.1 m -9.55,4.7 0.05,-1.85 0.1,-2.65 2.7,0.3 1.05,0.1 0.15,1.95 0.1,0.3 0.05,0.85 -4.2,1"
       fill="#f3e0d8"
       stroke="none"
       style="fill:#9a4f2f;fill-opacity:1" />
    <path
       id="path474"
       d="m 1009.3434,1687.2922 4.2,-1 0.25,1.5 1.05,-1.8 2.45,1.4 -1.15,4.1 -3.05,-0.55 v 0.95 l 2.7,1 -1.1,4.55 q 0.75,5.2 1.75,9.9 l -4.8,0.6 v 0.9 l 5.15,0.3 0.9,3.4 h -12.75 q 1.6,-1.85 2.7,-7.9 -1.3,-4.1 -3.1,-6.7 l 0.95,-0.65 2.9,2.35 0.1,-1.55 2.95,0.35 0.5,-0.9 -3.2,-1.3 0.6,-8.95"
       fill="#faf5f3"
       stroke="none"
       style="fill:#a35f44;fill-opacity:1" />
    <path
       id="path476"
       d="m 1016.1434,1691.4922 -0.35,1.4 -2.7,-1 v -0.95 l 3.05,0.55 m 0.3,15.85 0.35,1.8 -5.15,-0.3 v -0.9 l 4.8,-0.6 m -7.95,-9.25 0.25,-1.85 3.2,1.3 -0.5,0.9 -2.95,-0.35"
       fill="#8c705f"
       stroke="none" />
  </g>
  <path
     id="path1521"
     d="m 313.08994,358.86744 -1.04593,3.0216 -0.11621,0.2905 -0.69728,2.2662 -2.84725,-1.627 2.03375,-3.4864 2.09185,-0.3487 0.58107,-0.1162 m -11.09844,5.4621 0.0581,-2.15 0.11622,-3.0796 3.13778,0.3486 1.22025,0.1162 0.17432,2.2662 0.11621,0.3486 0.0581,0.9879 -4.88099,1.1621"
     fill="#f3e0d8"
     stroke="none"
     style="fill:#9a4f2f;fill-opacity:1;stroke-width:0.860479" />
  <g
     transform="matrix(-1,0,0,1,577.81766,-994.43696)"
     id="g1536">
    <path
       style="fill:#a35f44;fill-opacity:1;stroke-width:0.860479"
       stroke="none"
       fill="#faf5f3"
       d="m 267.70057,1358.7665 4.88099,-1.1621 0.29053,1.7432 1.22025,-2.0919 2.84725,1.627 -1.33647,4.7648 -3.54453,-0.6392 v 1.1041 l 3.13778,1.1621 -1.27835,5.2878 q 0.87161,6.0432 2.03375,11.5052 l -5.57828,0.6973 v 1.046 l 5.98503,0.3486 1.04592,3.9513 h -14.81729 q 1.85942,-2.15 3.13778,-9.181 -1.51079,-4.7648 -3.60264,-7.7863 l 1.10403,-0.7554 3.37021,2.731 0.11622,-1.8013 3.42831,0.4067 0.58107,-1.0459 -3.71885,-1.5108 0.69729,-10.4012"
       id="path1523" />
    <path
       style="stroke-width:0.860479"
       stroke="none"
       fill="#8c705f"
       d="m 275.60312,1363.6475 -0.40675,1.627 -3.13778,-1.1621 v -1.1041 l 3.54453,0.6392 m 0.34865,18.42 0.40675,2.0919 -5.98503,-0.3486 v -1.046 l 5.57828,-0.6973 m -9.23902,-10.7498 0.29053,-2.15 3.71885,1.5108 -0.58107,1.0459 -3.42831,-0.4067"
       id="path1525" />
  </g>
  <path
     id="path1517"
     d="m 284.87051,356.20944 c -5.29713,-4.9972 -8.67405,-10.8854 -10.13076,-17.6646 l -0.0662,-0.5811 h 4.7012 l -1.52292,-4.2999 c -1.94227,-6.1594 -2.47199,-12.3382 -1.58914,-18.5362 l 3.97286,1.9175 -0.3973,-4.2999 c -0.79456,-11.7764 0.0883,-23.4367 2.64857,-34.9806 l 5.36334,3.6607 0.0662,-0.2324 c 0.83871,-9.6845 3.39903,-18.42 7.68083,-26.2064 l 3.57556,7.4378 2.8472,-1.8595 1.45671,-0.5811 c 1.19185,-0.4261 2.38371,-0.6391 3.57556,-0.6391 l 2.38371,0.2905 1.85399,-8.7161 c 4.67909,6.8954 8.32086,13.1129 10.92532,18.6525 l 1.32429,2.9634 c 1.4126,3.4865 2.3837,6.663 2.91341,9.5296 l 4.17149,-4.5905 c 2.16295,9.3747 2.78099,18.943 1.85399,28.7051 l 5.69441,-2.8473 c 0.70624,10.1494 0.0662,19.6984 -1.9202,28.6469 l -0.19865,0.8135 -1.05942,4.1256 v 0.058 l 5.29713,-1.4527 -0.66215,2.2081 c -1.41261,4.4162 -3.50934,8.3675 -6.29033,11.8539 l 4.63498,-0.4649 -4.10527,4.6486 -2.97963,1.9176 c -6.48898,3.6801 -14.32436,5.5202 -23.506,5.5202 -8.74026,0 -16.24456,-1.6657 -22.51277,-4.9973"
     fill="#f78d3b"
     stroke="none"
     style="fill:#21d12f;fill-opacity:1;stroke-width:0.860478"
     sodipodi:nodetypes="ccccccccccccccccccccccccccccccccccsc" />
  <path
     id="path1519"
     d="m 331.37235,353.76894 q -5.94901,6.3918 -14.48194,9.9364 l -1.02154,0.3486 -2.64401,0.8135 -0.60091,0.1162 -2.16327,0.3487 -3.42519,0.2324 h -0.60091 l -1.26191,-0.1162 -3.24491,-0.3486 -0.90137,-0.2325 q -4.50683,-0.9878 -8.23247,-3.5445 -3.30499,-2.3824 -5.8889,-5.1135 8.53291,4.9973 20.43092,4.9973 12.49894,0 21.33231,-5.5202 l 2.7041,-1.9176"
     fill="#e58032"
     stroke="none"
     style="fill:#16ad23;fill-opacity:1;stroke-width:0.860479" />
  <path
     sodipodi:nodetypes="ccccc"
     id="path1595"
     d="m 1819.32,47.563036 h 512 V 361.53509 l -512,-0.92536 V 47.563036"
     fill="#cfeffc"
     stroke="none" />
  <path
     id="path1597"
     d="m 2331.32,139.76304 v 125.9 h -512 v -124.3 q 0.2,-7.85 5.8,-13.45 5,-5 11.75,-5.7 1.05,-1.55 2.45,-2.95 5.85,-5.85 14,-5.85 3.5,0 6.55,1.1 4.1,1.4 7.45,4.75 4.65,4.6 5.55,10.8 5.35,0.65 10.1,2.55 1.15,-3.05 3.85,-5.5 4.75,-4.45 11.55,-4.45 6.75,0 11.55,4.45 l 1.35,1.4 q 11.85,-10.35 28.4,-10.35 l 6.5,0.45 0.5,-0.5 q 4.75,-4.45 11.55,-4.45 3.85,0 7.1,1.5 h 0.05 l -0.05,-0.25 -0.05,-1.05 v -0.35 -0.55 q 0.2,-5.95 4.8,-10.25 4.8,-4.450004 11.55,-4.450004 l 2.85,0.25 q 1.15,-3.55 4.15,-6.35 4.8,-4.45 11.55,-4.45 6.8,0 11.55,4.45 3.3,3.05 4.35,6.95 10.6,2.050004 18.9,9.050004 4.25,-3.1 9.95,-3.1 6.75,0 11.55,4.45 3.5,3.25 4.45,7.55 l 8.8,-0.85 2.9,0.1 q 1.05,-3.85 4.25,-6.85 4.75,-4.45 11.55,-4.45 6.8,0 11.6,4.45 l 0.3,0.35 q 2.65,-4.15 6.55,-7.8 12.2,-11.400004 29.5,-11.400004 1.15,-2.7 3.5,-4.85 4.8,-4.45 11.6,-4.45 l 4.3,0.5 q 0.45,-5.5 4.75,-9.5 4.8,-4.45 11.55,-4.45 4.85,0 8.6,2.25 8.35,-3.85 18.4,-3.85 17.35,0 29.6,11.4 5.65,5.25 8.7,11.55 l 3.55,-0.35 q 6.75,0 11.55,4.45 4.5,4.2 4.75,10.100004 v 0.65 l -0.05,1.3 q -0.2,2.7 -1.4,5.1 0.85,1.75 1.2,3.65 6.3,2.8 11.6,7.75 2.25,2.1 4.1,4.4 3.85,-2.25 8.7,-2.25 6.8,0 11.55,4.45 3.55,3.3 4.45,7.6 h 0.8 q 9.75,0 17.9,3.65 3.45,-1.7 7.6,-1.7 4.2,0 7.65,1.75"
     fill="#def5ff"
     stroke="none" />
  <path
     style="fill:url(#linearGradient1641)"
     id="path1599"
     d="m 1819.32,169.76304 q 3.45,-1.75 7.65,-1.75 4.15,0 7.6,1.7 8.15,-3.65 17.9,-3.65 h 0.8 q 0.9,-4.3 4.45,-7.6 4.75,-4.45 11.55,-4.45 4.85,0 8.7,2.25 l 4.1,-4.4 q 5.3,-4.95 11.6,-7.75 0.35,-1.9 1.2,-3.65 -1.2,-2.4 -1.4,-5.1 l -0.05,-1.3 v -0.65 q 0.25,-5.9 4.75,-10.1 4.8,-4.45 11.55,-4.45 l 3.55,0.35 q 3.05,-6.3 8.7,-11.55 12.25,-11.400004 29.6,-11.400004 10.05,0 18.4,3.850004 3.75,-2.250004 8.6,-2.250004 6.75,0 11.55,4.450004 4.3,4 4.75,9.5 l 4.3,-0.5 q 6.8,0 11.6,4.45 2.35,2.15 3.5,4.85 17.3,0 29.5,11.4 3.9,3.65 6.55,7.8 l 0.3,-0.35 q 4.8,-4.45 11.6,-4.45 6.8,0 11.55,4.45 3.2,3 4.25,6.85 l 2.9,-0.1 8.8,0.85 q 0.95,-4.3 4.45,-7.55 4.8,-4.45 11.55,-4.45 5.7,0 9.95,3.1 8.3,-7 18.9,-9.05 1.05,-3.9 4.35,-6.95 4.75,-4.45 11.55,-4.45 6.75,0 11.55,4.45 3,2.8 4.15,6.35 l 2.85,-0.25 q 6.75,0 11.55,4.45 4.6,4.3 4.8,10.25 v 0.55 0.35 l -0.05,1.05 -0.05,0.25 h 0.05 q 3.25,-1.5 7.1,-1.5 6.8,0 11.55,4.45 l 0.5,0.5 6.5,-0.45 q 16.55,0 28.4,10.35 l 1.35,-1.4 q 4.8,-4.45 11.55,-4.45 6.8,0 11.55,4.45 2.7,2.45 3.85,5.5 4.75,-1.9 10.1,-2.55 0.9,-6.2 5.55,-10.8 3.35,-3.35 7.45,-4.75 3.05,-1.1 6.55,-1.1 8.15,0 14,5.85 1.4,1.4 2.45,2.95 6.75,0.7 11.75,5.7 5.6,5.6 5.8,13.45 v 124.3 h -512 v -125.9"
     fill="url(#gradient6)"
     stroke="none" />
  <path
     id="path1601"
     d="m 2331.27,235.81304 v 147.6681 l -511.95,-0.7635 v -146.9046 c 11.6333,2.0333 23.0666,4.3167 34.3,6.85 19.6333,4.4 39.7167,4.7333 60.25,1 19.0333,-3.4667 38.2667,-6.6167 57.7,-9.45 19.9667,-2.9333 40.1833,-3.4167 60.65,-1.45 20.4333,2 39.95,5.1667 58.55,9.5 18.8334,4.4 38.75,6.6333 59.75,6.7 21,0.067 41.3167,-1.65 60.95,-5.15 19.0334,-3.4333 38.4334,-6.3 58.2,-8.6 20.6667,-2.3667 41.2,-2.1667 61.6,0.6"
     fill="#eaf8fd"
     stroke="none"
     sodipodi:nodetypes="cccccccccsccc" />
  <path
     id="path1603"
     d="m 1272.7051,310.11304 v -8.05 h 0.25 q 4,0.1 6.85,3.35 l 14.95,16.95 15.9,-18.05 q 1.25,-1.45 2.75,-2.25 1.95,-1.1 4.3,-1.1 2.35,0 4.35,1.1 1.45,0.8 2.75,2.25 l 20.9,23.75 q 2.9,-3.3 7,-3.3 4.15,0 7.1,3.35 l 12.9,14.65 87.95,-99.8 q 2.9,-3.35 7.05,-3.35 4.15,0 7.1,3.35 l 72.8999,82.75 47.95,-54.35 q 2.9,-3.35 7.05,-3.35 4.15,0 7.1,3.35 l 32.9,37.35 17.95,-20.35 q 2.9,-3.35 7.05,-3.35 4.15,0 7.1,3.35 l 37.9,43.05 12.95,-14.65 q 2.9,-3.35 7.05,-3.35 4.15,0 7.1,3.35 l 13.9,15.8 23.95,-27.15 q 2.15,-2.5 5.05,-3.1 l 1.75,-0.25 h 0.25 v 8.05 h -0.25 l -1.75,0.2 q -2.9,0.55 -5.05,2.75 l -23.95,23.9 -13.9,-13.9 q -2.95,-2.95 -7.1,-2.95 -4.15,0 -7.05,2.95 l -12.95,12.9 -37.9,-37.9 q -2.95,-2.95 -7.1,-2.95 -4.15,0 -7.05,2.95 l -17.95,17.9 -32.9,-32.9 q -2.95,-2.95 -7.1,-2.95 -4.15,0 -7.05,2.95 l -47.95,47.9 -72.8999,-72.9 q -2.95,-2.95 -7.1,-2.95 -4.15,0 -7.05,2.95 l -87.95,87.9 -12.9,-12.9 q -2.95,-2.95 -7.1,-2.95 -4.1,0 -7,2.9 l -20.9,-20.9 q -1.3,-1.3 -2.75,-2 -2,-0.95 -4.35,-0.95 -2.35,0 -4.3,0.95 -1.5,0.7 -2.75,2 l -15.9,15.9 -14.95,-14.95 q -2.85,-2.85 -6.85,-2.95 h -0.25"
     fill="#c9efff"
     stroke="none"
     style="fill:#e4e4e4;fill-opacity:1" />
  <path
     id="path1605"
     d="m 1272.7051,310.11304 h 0.25 q 4,0.1 6.85,2.95 l 14.95,14.95 15.9,-15.9 q 1.25,-1.3 2.75,-2 1.95,-0.95 4.3,-0.95 2.35,0 4.35,0.95 1.45,0.7 2.75,2 l 20.9,20.9 q 2.9,-2.9 7,-2.9 4.15,0 7.1,2.95 l 12.9,12.9 87.95,-87.9 q 2.9,-2.95 7.05,-2.95 4.15,0 7.1,2.95 l 72.8999,72.9 47.95,-47.9 q 2.9,-2.95 7.05,-2.95 4.15,0 7.1,2.95 l 32.9,32.9 17.95,-17.9 q 2.9,-2.95 7.05,-2.95 4.15,0 7.1,2.95 l 37.9,37.9 12.95,-12.9 q 2.9,-2.95 7.05,-2.95 4.15,0 7.1,2.95 l 13.9,13.9 23.95,-23.9 q 2.15,-2.2 5.05,-2.75 l 1.75,-0.2 h 0.25 v 130.05 h -511.9999 v -130.05"
     fill="#b7e7fa"
     stroke="none"
     style="fill:#d9d9d9;fill-opacity:1" />
  <path
     id="path1607"
     d="m 691.74106,554.26864 v -6.2 q 30.6,-4.15 61.6,-0.6 29.65,3.45 58.2,8.6 29.45,5.25 60.95,5.15 31.5,-0.1 59.75,-6.7 27.9,-6.5 58.54997,-9.5 30.69997,-2.95 60.64997,1.45 29.15,4.25 57.7,9.45 30.8,5.6 60.25,-1 16.85,-3.8 34.3,-6.85 v 6.2 q -17.45,2.6 -34.3,5.85 -29.45,5.65 -60.25,0.9 -28.55,-4.45 -57.7,-8.1 -29.95,-3.75 -60.64997,-1.2 -30.64997,2.5 -58.54997,8.1 -28.25,5.6 -59.75,5.7 -31.5,0.1 -60.95,-4.4 -28.55,-4.4 -58.2,-7.3 -31,-3.05 -61.6,0.45"
     fill="#27d483"
     stroke="none"
     style="fill:#8ee670;fill-opacity:1" />
  <path
     id="path1609"
     d="m 691.74106,554.26864 q 30.6,-3.5 61.6,-0.45 29.65,2.9 58.2,7.3 29.45,4.5 60.95,4.4 31.5,-0.1 59.75,-5.7 27.9,-5.6 58.54997,-8.1 30.69997,-2.55 60.64997,1.2 29.15,3.65 57.7,8.1 30.8,4.75 60.25,-0.9 16.85,-3.25 34.3,-5.85 v 189.55 H 691.74106 v -189.55"
     fill="#23bf76"
     stroke="none"
     style="fill:#4abf23;fill-opacity:1" />
  <path
     inkscape:export-ydpi="192"
     inkscape:export-xdpi="192"
     inkscape:export-filename="C:\Vorhaben\Java-Online\material\spritesheet-files\plattformer\grass1.png"
     id="path1611"
     d="m 865.47282,188.10258 q -9.9,13.95 -11.95,26.35 10.65,-2.85 18.8,3.95 -10.25,5.15 -18.35,13.7 h -18.45 q -6.8,-6.55 -15.2,-9.85 6.2,-5.3 13.7,-2.95 -1.95,-9.3 -12.15,-19.45 13.3,0 19.3,7.8 4.5,-19.55 24.3,-19.55 m -17.05,33.95 -0.05,-0.15 -0.25,0.1 0.3,0.05"
     fill="#23bf76"
     stroke="none"
     style="fill:#8bed56;fill-opacity:1" />
  <path
     inkscape:export-ydpi="192"
     inkscape:export-xdpi="192"
     inkscape:export-filename="C:\Vorhaben\Java-Online\material\spritesheet-files\plattformer\grass2.png"
     id="path1613"
     d="m 917.14819,236.66642 q -4.15,8.65 -6.55,19.45 5.9,-2.9 10.35,-0.9 -5.45,2.4 -8.85,7.2 h -14.25 q -2.15,-7.25 -7.1,-10.5 5,-2.2 10,3.5 -1.8,-11.05 -4.75,-19.95 5.9,4.95 9.55,13.4 5.05,-8.15 11.6,-12.2"
     fill="#23bf76"
     stroke="none"
     style="fill:#5ddf18;fill-opacity:1" />
  <g
     inkscape:export-ydpi="192"
     inkscape:export-xdpi="192"
     id="g1627"
     transform="translate(-239.80541,-1540.2311)">
    <path
       sodipodi:nodetypes="ccccccccccccccccccccccccccccccccccsc"
       style="fill:#21d12f;fill-opacity:1"
       stroke="none"
       fill="#f78d3b"
       d="m 996.99341,1675.1422 c -4,-4.3 -6.55,-9.3667 -7.65,-15.2 l -0.05,-0.5 h 3.55 l -1.15,-3.7 c -1.46667,-5.3 -1.86667,-10.6167 -1.2,-15.95 l 3,1.65 -0.3,-3.7 c -0.6,-10.1333 0.0667,-20.1667 2,-30.1 l 4.05,3.15 0.05,-0.2 c 0.63333,-8.3333 2.56669,-15.85 5.79999,-22.55 l 2.7,6.4 2.15,-1.6 1.1,-0.5 c 0.9,-0.3667 1.8,-0.55 2.7,-0.55 l 1.8,0.25 1.4,-7.5 c 3.5333,5.9333 6.2833,11.2833 8.25,16.05 l 1,2.55 c 1.0667,3 1.8,5.7333 2.2,8.2 l 3.15,-3.95 c 1.6333,8.0667 2.1,16.3 1.4,24.7 l 4.3,-2.45 c 0.5333,8.7333 0.05,16.95 -1.45,24.65 l -0.15,0.7 -0.8,3.55 v 0.05 l 4,-1.25 -0.5,1.9 c -1.0667,3.8 -2.65,7.2 -4.75,10.2 l 3.5,-0.4 -3.1,4 -2.25,1.65 c -4.9,3.1667 -10.8167,4.75 -17.75,4.75 -6.6,0 -12.2667,-1.4333 -16.99999,-4.3"
       id="path1617" />
    <path
       style="fill:#16ad23;fill-opacity:1"
       stroke="none"
       fill="#e58032"
       d="m 1033.9934,1673.0422 q -4.95,5.5 -12.05,8.55 l -0.85,0.3 -2.2,0.7 -0.5,0.1 -1.8,0.3 -2.85,0.2 h -0.5 l -1.05,-0.1 -2.7,-0.3 -0.75,-0.2 q -3.75,-0.85 -6.85,-3.05 -2.74999,-2.05 -4.89999,-4.4 7.09999,4.3 16.99999,4.3 10.4,0 17.75,-4.75 l 2.25,-1.65"
       id="path1619" />
    <path
       style="fill:#9a4f2f;fill-opacity:1"
       stroke="none"
       fill="#f3e0d8"
       d="m 1018.8934,1682.5922 -0.9,2.6 -0.1,0.25 -0.6,1.95 -2.45,-1.4 1.75,-3 1.8,-0.3 0.5,-0.1 m -9.55,4.7 0.05,-1.85 0.1,-2.65 2.7,0.3 1.05,0.1 0.15,1.95 0.1,0.3 0.05,0.85 -4.2,1"
       id="path1621" />
    <path
       style="fill:#a35f44;fill-opacity:1"
       stroke="none"
       fill="#faf5f3"
       d="m 1009.3434,1687.2922 4.2,-1 0.25,1.5 1.05,-1.8 2.45,1.4 -1.15,4.1 -3.05,-0.55 v 0.95 l 2.7,1 -1.1,4.55 q 0.75,5.2 1.75,9.9 l -4.8,0.6 v 0.9 l 5.15,0.3 0.9,3.4 h -12.75 q 1.6,-1.85 2.7,-7.9 -1.3,-4.1 -3.1,-6.7 l 0.95,-0.65 2.9,2.35 0.1,-1.55 2.95,0.35 0.5,-0.9 -3.2,-1.3 0.6,-8.95"
       id="path1623" />
    <path
       stroke="none"
       fill="#8c705f"
       d="m 1016.1434,1691.4922 -0.35,1.4 -2.7,-1 v -0.95 l 3.05,0.55 m 0.3,15.85 0.35,1.8 -5.15,-0.3 v -0.9 l 4.8,-0.6 m -7.95,-9.25 0.25,-1.85 3.2,1.3 -0.5,0.9 -2.95,-0.35"
       id="path1625" />
  </g>
  <g
     inkscape:export-ydpi="192"
     inkscape:export-xdpi="192"
     inkscape:export-filename="C:\Vorhaben\Java-Online\material\spritesheet-files\plattformer\background_tree2.png"
     id="g2199">
    <path
       id="path1629"
       d="m 942.12971,158.0634 -1.04593,3.0216 -0.11621,0.2905 -0.69728,2.2662 -2.84725,-1.627 2.03375,-3.4864 2.09185,-0.3487 0.58107,-0.1162 m -11.09844,5.4621 0.0581,-2.15 0.11622,-3.0796 3.13778,0.3486 1.22025,0.1162 0.17432,2.2662 0.11621,0.3486 0.0581,0.9879 -4.88099,1.1621"
       fill="#f3e0d8"
       stroke="none"
       style="fill:#9a4f2f;fill-opacity:1;stroke-width:0.860479" />
    <g
       transform="matrix(-1,0,0,1,1206.8575,-1195.241)"
       id="g1635">
      <path
         style="fill:#a35f44;fill-opacity:1;stroke-width:0.860479"
         stroke="none"
         fill="#faf5f3"
         d="m 267.70057,1358.7665 4.88099,-1.1621 0.29053,1.7432 1.22025,-2.0919 2.84725,1.627 -1.33647,4.7648 -3.54453,-0.6392 v 1.1041 l 3.13778,1.1621 -1.27835,5.2878 q 0.87161,6.0432 2.03375,11.5052 l -5.57828,0.6973 v 1.046 l 5.98503,0.3486 1.04592,3.9513 h -14.81729 q 1.85942,-2.15 3.13778,-9.181 -1.51079,-4.7648 -3.60264,-7.7863 l 1.10403,-0.7554 3.37021,2.731 0.11622,-1.8013 3.42831,0.4067 0.58107,-1.0459 -3.71885,-1.5108 0.69729,-10.4012"
         id="path1631" />
      <path
         style="stroke-width:0.860479"
         stroke="none"
         fill="#8c705f"
         d="m 275.60312,1363.6475 -0.40675,1.627 -3.13778,-1.1621 v -1.1041 l 3.54453,0.6392 m 0.34865,18.42 0.40675,2.0919 -5.98503,-0.3486 v -1.046 l 5.57828,-0.6973 m -9.23902,-10.7498 0.29053,-2.15 3.71885,1.5108 -0.58107,1.0459 -3.42831,-0.4067"
         id="path1633" />
    </g>
    <path
       id="path1637"
       d="m 913.91028,155.4054 c -5.29713,-4.9972 -8.67405,-10.8854 -10.13076,-17.6646 l -0.0662,-0.5811 h 4.7012 l -1.52292,-4.2999 c -1.94227,-6.1594 -2.47199,-12.3382 -1.58914,-18.5362 l 3.97286,1.9175 -0.3973,-4.2999 c -0.79456,-11.7764 0.0883,-23.436702 2.64857,-34.980602 l 5.36334,3.6607 0.0662,-0.2324 c 0.83871,-9.6845 3.39903,-18.42 7.68083,-26.2064 l 3.57556,7.4378 2.8472,-1.8595 1.45671,-0.5811 c 1.19185,-0.4261 2.38371,-0.6391 3.57556,-0.6391 l 2.38371,0.2905 1.85399,-8.7161 c 4.67909,6.8954 8.32086,13.1129 10.92532,18.6525 l 1.32429,2.9634 c 1.4126,3.4865 2.3837,6.663 2.91341,9.5296 l 4.17149,-4.5905 c 2.16295,9.3747 2.78099,18.943 1.85399,28.705102 l 5.69441,-2.8473 c 0.70624,10.1494 0.0662,19.6984 -1.9202,28.6469 l -0.19865,0.8135 -1.05942,4.1256 v 0.058 l 5.29713,-1.4527 -0.66215,2.2081 c -1.41261,4.4162 -3.50934,8.3675 -6.29033,11.8539 l 4.63498,-0.4649 -4.10527,4.6486 -2.97963,1.9176 c -6.48898,3.6801 -14.32436,5.5202 -23.506,5.5202 -8.74026,0 -16.24456,-1.6657 -22.51277,-4.9973"
       fill="#f78d3b"
       stroke="none"
       style="fill:#21d12f;fill-opacity:1;stroke-width:0.860478"
       sodipodi:nodetypes="ccccccccccccccccccccccccccccccccccsc" />
    <path
       id="path1639"
       d="m 960.41212,152.9649 q -5.94901,6.3918 -14.48194,9.9364 l -1.02154,0.3486 -2.64401,0.8135 -0.60091,0.1162 -2.16327,0.3487 -3.42519,0.2324 h -0.60091 l -1.26191,-0.1162 -3.24491,-0.3486 -0.90137,-0.2325 q -4.50683,-0.9878 -8.23247,-3.5445 -3.30499,-2.3824 -5.8889,-5.1135 8.53291,4.9973 20.43092,4.9973 12.49894,0 21.33231,-5.5202 l 2.7041,-1.9176"
       fill="#e58032"
       stroke="none"
       style="fill:#16ad23;fill-opacity:1;stroke-width:0.860479" />
  </g>
  <g
     transform="translate(31.420918,-21.285138)"
     id="g2063">
    <g
       id="g1809">
      <path
         id="path1655"
         d="m 74.29093,895.96406 h 512 V 1407.964 h -512 V 895.96406"
         fill="#cfeffc"
         stroke="none" />
      <path
         id="path1657"
         d="M 586.29093,988.16403 V 1114.064 h -512 V 989.76403 q 0.2,-7.85 5.8,-13.44996 5,-5 11.75,-5.7 1.05,-1.55 2.45,-2.95 5.85,-5.85 14,-5.85 3.5,0 6.55,1.1 4.1,1.4 7.45,4.75 4.65,4.6 5.55,10.79996 5.35,0.65 10.1,2.55 1.15,-3.04996 3.85,-5.49996 4.75,-4.45 11.55,-4.45 6.75,0 11.55,4.45 l 1.35,1.4 q 11.85,-10.35 28.4,-10.35 l 6.5,0.45 0.5,-0.5 q 4.75,-4.45 11.55,-4.45 3.85,0 7.1,1.5 h 0.05 l -0.05,-0.25 -0.05,-1.05 v -0.35 -0.55 q 0.2,-5.95 4.8,-10.25 4.8,-4.45001 11.55,-4.45001 l 2.85,0.25 q 1.15,-3.55 4.15,-6.35 4.8,-4.45 11.55,-4.45 6.8,0 11.55,4.45 3.3,3.05 4.35,6.95 10.6,2.05001 18.9,9.05001 4.25,-3.1 9.95,-3.1 6.75,0 11.55,4.45 3.5,3.25 4.45,7.55 l 8.8,-0.85 2.9,0.1 q 1.05,-3.85 4.25,-6.85 4.75,-4.45 11.55,-4.45 6.8,0 11.6,4.45 l 0.3,0.35 q 2.65,-4.15 6.55,-7.8 12.2,-11.40001 29.5,-11.40001 1.15,-2.7 3.5,-4.85 4.8,-4.45 11.6,-4.45 l 4.3,0.5 q 0.45,-5.5 4.75,-9.5 4.8,-4.45 11.55,-4.45 4.85,0 8.6,2.25 8.35,-3.85 18.4,-3.85 17.35,0 29.6,11.4 5.65,5.25 8.7,11.55 l 3.55,-0.35 q 6.75,0 11.55,4.45 4.5,4.2 4.75,10.10001 v 0.65 l -0.05,1.3 q -0.2,2.7 -1.4,5.1 0.85,1.75 1.2,3.65 6.3,2.8 11.6,7.75 2.25,2.1 4.1,4.4 3.85,-2.25 8.7,-2.25 6.8,0 11.55,4.45 3.55,3.29996 4.45,7.59996 h 0.8 q 9.75,0 17.9,3.65 3.45,-1.7 7.6,-1.7 4.2,0 7.65,1.75"
         fill="#def5ff"
         stroke="none" />
      <path
         style="fill:url(#linearGradient1701)"
         id="path1659"
         d="m 74.29093,1018.164 q 3.45,-1.75 7.65,-1.75 4.15,0 7.6,1.7 8.15,-3.65 17.9,-3.65 h 0.8 q 0.9,-4.3 4.45,-7.6 4.75,-4.45 11.55,-4.45 4.85,0 8.7,2.25 l 4.1,-4.4 q 5.3,-4.94997 11.6,-7.74997 0.35,-1.9 1.2,-3.65 -1.2,-2.4 -1.4,-5.1 l -0.05,-1.3 v -0.65 q 0.25,-5.89996 4.75,-10.09996 4.8,-4.45 11.55,-4.45 l 3.55,0.35 q 3.05,-6.3 8.7,-11.55 12.25,-11.40001 29.6,-11.40001 10.05,0 18.4,3.85001 3.75,-2.25001 8.6,-2.25001 6.75,0 11.55,4.45001 4.3,4 4.75,9.5 l 4.3,-0.5 q 6.8,0 11.6,4.45 2.35,2.15 3.5,4.85 17.3,0 29.5,11.39996 3.9,3.65 6.55,7.8 l 0.3,-0.35 q 4.8,-4.45 11.6,-4.45 6.8,0 11.55,4.45 3.2,3 4.25,6.85 l 2.9,-0.1 8.8,0.85 q 0.95,-4.3 4.45,-7.55 4.8,-4.45 11.55,-4.45 5.7,0 9.95,3.1 8.3,-7 18.9,-9.04996 1.05,-3.9 4.35,-6.95 4.75,-4.45 11.55,-4.45 6.75,0 11.55,4.45 3,2.8 4.15,6.35 l 2.85,-0.25 q 6.75,0 11.55,4.44996 4.6,4.3 4.8,10.25 v 0.55 0.35 l -0.05,1.05 -0.05,0.25 h 0.05 q 3.25,-1.5 7.1,-1.5 6.8,0 11.55,4.45 l 0.5,0.5 6.5,-0.45 q 16.55,0 28.4,10.34997 l 1.35,-1.4 q 4.8,-4.45 11.55,-4.45 6.8,0 11.55,4.45 2.7,2.45 3.85,5.5 4.75,-1.9 10.1,-2.55 0.9,-6.2 5.55,-10.79997 3.35,-3.35 7.45,-4.75 3.05,-1.1 6.55,-1.1 8.15,0 14,5.85 1.4,1.4 2.45,2.94997 6.75,0.7 11.75,5.7 5.6,5.6 5.8,13.45 v 124.3 h -512 v -125.9"
         fill="url(#gradient6)"
         stroke="none" />
      <path
         id="path1661"
         d="m 586.24093,1084.214 v 147.6681 l -511.95,-0.7635 V 1084.214 c 11.633333,2.0333 23.066667,4.3167 34.3,6.85 19.63333,4.4 39.71667,4.7333 60.25,1 19.03333,-3.4667 38.26667,-6.6167 57.7,-9.45 19.96667,-2.9333 40.18333,-3.4167 60.65,-1.45 20.43333,2 39.95,5.1667 58.55,9.5 18.83333,4.4 38.75,6.6333 59.75,6.7 21,0.067 41.31667,-1.65 60.95,-5.15 19.03333,-3.4333 38.43333,-6.3 58.2,-8.6 20.66667,-2.3667 41.2,-2.1667 61.6,0.6"
         fill="#eaf8fd"
         stroke="none"
         sodipodi:nodetypes="cccccccccsccc" />
    </g>
    <g
       id="g1803"
       transform="translate(0.65)">
      <path
         id="path1663"
         d="m 73.640929,1158.514 v -8.05 h 0.25 q 4,0.1 6.85,3.35 l 14.95,16.95 15.900001,-18.05 q 1.25,-1.45 2.75,-2.25 1.95,-1.1 4.3,-1.1 2.35,0 4.35,1.1 1.45,0.8 2.75,2.25 l 20.9,23.75 q 2.9,-3.3 7,-3.3 4.15,0 7.1,3.35 l 12.9,14.65 87.95,-99.8 q 2.9,-3.35 7.05,-3.35 4.15,0 7.1,3.35 l 72.9,82.75 47.95,-54.35 q 2.9,-3.35 7.05,-3.35 4.15,0 7.1,3.35 l 32.9,37.35 17.95,-20.35 q 2.9,-3.35 7.05,-3.35 4.15,0 7.1,3.35 l 37.9,43.05 12.95,-14.65 q 2.9,-3.35 7.05,-3.35 4.15,0 7.1,3.35 l 13.9,15.8 23.95,-27.15 q 2.15,-2.5 5.05,-3.1 l 1.75,-0.25 h 0.25 v 8.05 h -0.25 l -1.75,0.2 q -2.9,0.55 -5.05,2.75 l -23.95,23.9 -13.9,-13.9 q -2.95,-2.95 -7.1,-2.95 -4.15,0 -7.05,2.95 l -12.95,12.9 -37.9,-37.9 q -2.95,-2.95 -7.1,-2.95 -4.15,0 -7.05,2.95 l -17.95,17.9 -32.9,-32.9 q -2.95,-2.95 -7.1,-2.95 -4.15,0 -7.05,2.95 l -47.95,47.9 -72.9,-72.9 q -2.95,-2.95 -7.1,-2.95 -4.15,0 -7.05,2.95 l -87.95,87.9 -12.9,-12.9 q -2.95,-2.95 -7.1,-2.95 -4.1,0 -7,2.9 l -20.9,-20.9 q -1.3,-1.3 -2.75,-2 -2,-0.95 -4.35,-0.95 -2.35,0 -4.3,0.95 -1.5,0.7 -2.75,2 l -15.900001,15.9 -14.95,-14.95 q -2.85,-2.85 -6.85,-2.95 h -0.25"
         fill="#c9efff"
         stroke="none"
         style="fill:#e4e4e4;fill-opacity:1" />
      <path
         id="path1665"
         d="m 73.640929,1158.514 h 0.25 q 4,0.1 6.85,2.95 l 14.95,14.95 15.900001,-15.9 q 1.25,-1.3 2.75,-2 1.95,-0.95 4.3,-0.95 2.35,0 4.35,0.95 1.45,0.7 2.75,2 l 20.9,20.9 q 2.9,-2.9 7,-2.9 4.15,0 7.1,2.95 l 12.9,12.9 87.95,-87.9 q 2.9,-2.95 7.05,-2.95 4.15,0 7.1,2.95 l 72.9,72.9 47.95,-47.9 q 2.9,-2.95 7.05,-2.95 4.15,0 7.1,2.95 l 32.9,32.9 17.95,-17.9 q 2.9,-2.95 7.05,-2.95 4.15,0 7.1,2.95 l 37.9,37.9 12.95,-12.9 q 2.9,-2.95 7.05,-2.95 4.15,0 7.1,2.95 l 13.9,13.9 23.95,-23.9 q 2.15,-2.2 5.05,-2.75 l 1.75,-0.2 h 0.25 v 130.05 H 73.640929 v -130.05"
         fill="#b7e7fa"
         stroke="none"
         style="fill:#d9d9d9;fill-opacity:1" />
    </g>
    <g
       id="g1813">
      <path
         id="path1667"
         d="m 74.34093,1218.414 v -6.2 q 30.6,-4.15 61.6,-0.6 29.65,3.45 58.2,8.6 29.45,5.25 60.95,5.15 31.5,-0.1 59.75,-6.7 27.9,-6.5 58.55,-9.5 30.7,-2.95 60.65,1.45 29.15,4.25 57.7,9.45 30.8,5.6 60.25,-1 16.85,-3.8 34.3,-6.85 v 6.2 q -17.45,2.6 -34.3,5.85 -29.45,5.65 -60.25,0.9 -28.55,-4.45 -57.7,-8.1 -29.95,-3.75 -60.65,-1.2 -30.65,2.5 -58.55,8.1 -28.25,5.6 -59.75,5.7 -31.5,0.1 -60.95,-4.4 -28.55,-4.4 -58.2,-7.3 -31,-3.05 -61.6,0.45"
         fill="#27d483"
         stroke="none"
         style="fill:#8ee670;fill-opacity:1" />
      <path
         id="path1669"
         d="m 74.34093,1218.414 q 30.6,-3.5 61.6,-0.45 29.65,2.9 58.2,7.3 29.45,4.5 60.95,4.4 31.5,-0.1 59.75,-5.7 27.9,-5.6 58.55,-8.1 30.7,-2.55 60.65,1.2 29.15,3.65 57.7,8.1 30.8,4.75 60.25,-0.9 16.85,-3.25 34.3,-5.85 v 189.55 h -511.95 v -189.55"
         fill="#23bf76"
         stroke="none"
         style="fill:#4abf23;fill-opacity:1" />
    </g>
    <path
       style="fill:#8bed56;fill-opacity:1"
       stroke="none"
       fill="#23bf76"
       d="m 192.94093,1190.114 q -9.9,13.95 -11.95,26.35 10.65,-2.85 18.8,3.95 -10.25,5.15 -18.35,13.7 h -18.45 q -6.8,-6.55 -15.2,-9.85 6.2,-5.3 13.7,-2.95 -1.95,-9.3 -12.15,-19.45 13.3,0 19.3,7.8 4.5,-19.55 24.3,-19.55 m -17.05,33.95 -0.05,-0.15 -0.25,0.1 0.3,0.05"
       id="path1671" />
    <path
       style="fill:#5ddf18;fill-opacity:1"
       stroke="none"
       fill="#23bf76"
       d="m 243.69093,1203.514 q -4.15,8.65 -6.55,19.45 5.9,-2.9 10.35,-0.9 -5.45,2.4 -8.85,7.2 h -14.25 q -2.15,-7.25 -7.1,-10.5 5,-2.2 10,3.5 -1.8,-11.05 -4.75,-19.95 5.9,4.95 9.55,13.4 5.05,-8.15 11.6,-12.2"
       id="path1673" />
    <path
       style="fill:#60e318;fill-opacity:1"
       stroke="none"
       fill="#23bf76"
       d="m 468.44093,1197.014 q -9.9,13.95 -11.95,26.35 10.65,-2.85 18.8,3.95 -10.25,5.15 -18.35,13.7 h -18.45 q -6.8,-6.55 -15.2,-9.85 6.2,-5.3 13.7,-2.95 -1.95,-9.3 -12.15,-19.45 13.3,0 19.3,7.8 4.5,-19.55 24.3,-19.55 m -17.05,33.95 -0.05,-0.15 -0.25,0.1 0.3,0.05"
       id="path1675" />
    <g
       transform="translate(-887.35247,-496.57817)"
       id="g1687">
      <path
         id="path1677"
         d="m 996.99341,1675.1422 c -4,-4.3 -6.55,-9.3667 -7.65,-15.2 l -0.05,-0.5 h 3.55 l -1.15,-3.7 c -1.46667,-5.3 -1.86667,-10.6167 -1.2,-15.95 l 3,1.65 -0.3,-3.7 c -0.6,-10.1333 0.0667,-20.1667 2,-30.1 l 4.05,3.15 0.05,-0.2 c 0.63333,-8.3333 2.56669,-15.85 5.79999,-22.55 l 2.7,6.4 2.15,-1.6 1.1,-0.5 c 0.9,-0.3667 1.8,-0.55 2.7,-0.55 l 1.8,0.25 1.4,-7.5 c 3.5333,5.9333 6.2833,11.2833 8.25,16.05 l 1,2.55 c 1.0667,3 1.8,5.7333 2.2,8.2 l 3.15,-3.95 c 1.6333,8.0667 2.1,16.3 1.4,24.7 l 4.3,-2.45 c 0.5333,8.7333 0.05,16.95 -1.45,24.65 l -0.15,0.7 -0.8,3.55 v 0.05 l 4,-1.25 -0.5,1.9 c -1.0667,3.8 -2.65,7.2 -4.75,10.2 l 3.5,-0.4 -3.1,4 -2.25,1.65 c -4.9,3.1667 -10.8167,4.75 -17.75,4.75 -6.6,0 -12.2667,-1.4333 -16.99999,-4.3"
         fill="#f78d3b"
         stroke="none"
         style="fill:#21d12f;fill-opacity:1"
         sodipodi:nodetypes="ccccccccccccccccccccccccccccccccccsc" />
      <path
         id="path1679"
         d="m 1033.9934,1673.0422 q -4.95,5.5 -12.05,8.55 l -0.85,0.3 -2.2,0.7 -0.5,0.1 -1.8,0.3 -2.85,0.2 h -0.5 l -1.05,-0.1 -2.7,-0.3 -0.75,-0.2 q -3.75,-0.85 -6.85,-3.05 -2.74999,-2.05 -4.89999,-4.4 7.09999,4.3 16.99999,4.3 10.4,0 17.75,-4.75 l 2.25,-1.65"
         fill="#e58032"
         stroke="none"
         style="fill:#16ad23;fill-opacity:1" />
      <path
         id="path1681"
         d="m 1018.8934,1682.5922 -0.9,2.6 -0.1,0.25 -0.6,1.95 -2.45,-1.4 1.75,-3 1.8,-0.3 0.5,-0.1 m -9.55,4.7 0.05,-1.85 0.1,-2.65 2.7,0.3 1.05,0.1 0.15,1.95 0.1,0.3 0.05,0.85 -4.2,1"
         fill="#f3e0d8"
         stroke="none"
         style="fill:#9a4f2f;fill-opacity:1" />
      <path
         id="path1683"
         d="m 1009.3434,1687.2922 4.2,-1 0.25,1.5 1.05,-1.8 2.45,1.4 -1.15,4.1 -3.05,-0.55 v 0.95 l 2.7,1 -1.1,4.55 q 0.75,5.2 1.75,9.9 l -4.8,0.6 v 0.9 l 5.15,0.3 0.9,3.4 h -12.75 q 1.6,-1.85 2.7,-7.9 -1.3,-4.1 -3.1,-6.7 l 0.95,-0.65 2.9,2.35 0.1,-1.55 2.95,0.35 0.5,-0.9 -3.2,-1.3 0.6,-8.95"
         fill="#faf5f3"
         stroke="none"
         style="fill:#a35f44;fill-opacity:1" />
      <path
         id="path1685"
         d="m 1016.1434,1691.4922 -0.35,1.4 -2.7,-1 v -0.95 l 3.05,0.55 m 0.3,15.85 0.35,1.8 -5.15,-0.3 v -0.9 l 4.8,-0.6 m -7.95,-9.25 0.25,-1.85 3.2,1.3 -0.5,0.9 -2.95,-0.35"
         fill="#8c705f"
         stroke="none" />
    </g>
    <path
       id="path1689"
       d="m 313.08994,1207.2684 -1.04593,3.0216 -0.11621,0.2905 -0.69728,2.2662 -2.84725,-1.627 2.03375,-3.4864 2.09185,-0.3487 0.58107,-0.1162 m -11.09844,5.4621 0.0581,-2.15 0.11622,-3.0796 3.13778,0.3486 1.22025,0.1162 0.17432,2.2662 0.11621,0.3486 0.0581,0.9879 -4.88099,1.1621"
       fill="#f3e0d8"
       stroke="none"
       style="fill:#9a4f2f;fill-opacity:1;stroke-width:0.860479" />
    <g
       transform="matrix(-1,0,0,1,577.81766,-146.03593)"
       id="g1695">
      <path
         style="fill:#a35f44;fill-opacity:1;stroke-width:0.860479"
         stroke="none"
         fill="#faf5f3"
         d="m 267.70057,1358.7665 4.88099,-1.1621 0.29053,1.7432 1.22025,-2.0919 2.84725,1.627 -1.33647,4.7648 -3.54453,-0.6392 v 1.1041 l 3.13778,1.1621 -1.27835,5.2878 q 0.87161,6.0432 2.03375,11.5052 l -5.57828,0.6973 v 1.046 l 5.98503,0.3486 1.04592,3.9513 h -14.81729 q 1.85942,-2.15 3.13778,-9.181 -1.51079,-4.7648 -3.60264,-7.7863 l 1.10403,-0.7554 3.37021,2.731 0.11622,-1.8013 3.42831,0.4067 0.58107,-1.0459 -3.71885,-1.5108 0.69729,-10.4012"
         id="path1691" />
      <path
         style="stroke-width:0.860479"
         stroke="none"
         fill="#8c705f"
         d="m 275.60312,1363.6475 -0.40675,1.627 -3.13778,-1.1621 v -1.1041 l 3.54453,0.6392 m 0.34865,18.42 0.40675,2.0919 -5.98503,-0.3486 v -1.046 l 5.57828,-0.6973 m -9.23902,-10.7498 0.29053,-2.15 3.71885,1.5108 -0.58107,1.0459 -3.42831,-0.4067"
         id="path1693" />
    </g>
    <path
       id="path1697"
       d="m 284.87051,1204.6104 c -5.29713,-4.9972 -8.67405,-10.8854 -10.13076,-17.6646 l -0.0662,-0.5811 h 4.7012 l -1.52292,-4.2999 c -1.94227,-6.1594 -2.47199,-12.3382 -1.58914,-18.5362 l 3.97286,1.9175 -0.3973,-4.2999 c -0.79456,-11.7764 0.0883,-23.4367 2.64857,-34.9806 l 5.36334,3.6607 0.0662,-0.2324 c 0.83871,-9.6845 3.39903,-18.42 7.68083,-26.2064 l 3.57556,7.4378 2.8472,-1.8595 1.45671,-0.5811 c 1.19185,-0.4261 2.38371,-0.6391 3.57556,-0.6391 l 2.38371,0.2905 1.85399,-8.7161 c 4.67909,6.8954 8.32086,13.1129 10.92532,18.6525 l 1.32429,2.9634 c 1.4126,3.4865 2.3837,6.663 2.91341,9.5296 l 4.17149,-4.5905 c 2.16295,9.3747 2.78099,18.943 1.85399,28.7051 l 5.69441,-2.8473 c 0.70624,10.1494 0.0662,19.6984 -1.9202,28.6469 l -0.19865,0.8135 -1.05942,4.1256 v 0.058 l 5.29713,-1.4527 -0.66215,2.2081 c -1.41261,4.4162 -3.50934,8.3675 -6.29033,11.8539 l 4.63498,-0.4649 -4.10527,4.6486 -2.97963,1.9176 c -6.48898,3.6801 -14.32436,5.5202 -23.506,5.5202 -8.74026,0 -16.24456,-1.6657 -22.51277,-4.9973"
       fill="#f78d3b"
       stroke="none"
       style="fill:#21d12f;fill-opacity:1;stroke-width:0.860478"
       sodipodi:nodetypes="ccccccccccccccccccccccccccccccccccsc" />
    <path
       id="path1699"
       d="m 331.37235,1202.1699 q -5.94901,6.3918 -14.48194,9.9364 l -1.02154,0.3486 -2.64401,0.8135 -0.60091,0.1162 -2.16327,0.3487 -3.42519,0.2324 h -0.60091 l -1.26191,-0.1162 -3.24491,-0.3486 -0.90137,-0.2325 q -4.50683,-0.9878 -8.23247,-3.5445 -3.30499,-2.3824 -5.8889,-5.1135 8.53291,4.9973 20.43092,4.9973 12.49894,0 21.33231,-5.5202 l 2.7041,-1.9176"
       fill="#e58032"
       stroke="none"
       style="fill:#16ad23;fill-opacity:1;stroke-width:0.860479" />
  </g>
  <g
     inkscape:export-ydpi="192"
     inkscape:export-xdpi="192"
     style="stroke-width:1.735"
     transform="matrix(0.57636841,0,0,0.57636841,1025.0197,11.769093)"
     id="g1755">
    <path
       style="fill:#23bf76;fill-opacity:1;stroke-width:1.735"
       id="path1579"
       d="m 152.9,216 14.65,27.15 -2.8,1.45 q 2.75,5.45 5.85,10.95 l 0.65,1.15 q -52.6,-4.15 -101.7,5.1 3.55,-10.2 6.25,-21.25 l 3.95,-1.4 -2.9,-3.15 2.6,-13.45 Q 115.7,215.2 152.9,216" />
    <path
       style="fill:#23bf76;fill-opacity:1;stroke-width:1.735"
       id="path1577"
       d="m 137.8,155.65 18,38.9 -3.4,1.65 q 2.85,6.75 6,13.4 -45.9,-8.05 -87.05,-8.55 l 7.1,-18.6 6.5,-2.7 -3.6,-4.9 9.75,-25.9 q 25.85,0.8 46.7,6.7" />
    <path
       style="fill:#23bf76;fill-opacity:1;stroke-width:1.735"
       id="path1575"
       d="m 136.3,133.05 q -24.1,0.25 -49.1,8.25 l 4.35,-13.75 5.15,-2.65 -3.25,-4.35 Q 100.4,92.8 103.7,55 l 26.9,57.65 -3.55,1.45 q 4.45,9.7 9.25,18.95" />
    <path
       style="fill:#af6742;fill-opacity:1;stroke-width:1.735"
       id="path1733"
       d="m 123.55,261.45 1.45,9.55 -14.2,2.8 0.75,-11.2 5.65,-0.6 6.35,-0.55" />
    <path
       style="fill:#c9764d;fill-opacity:1;stroke-width:1.735"
       id="path1691-9"
       d="m 125,271 3.1,16.35 q 3.35,17.7 8.25,21.65 h -33.4 q 5,-3.1 6.7,-22.15 L 110.8,273.8 125,271" />
    <path
       style="fill:#1ea666;fill-opacity:1;stroke-width:1.735"
       id="path1515"
       d="m 151.85,212.6 1.05,3.4 q -37.2,-0.8 -73.45,6.55 L 81.5,207.9 q 34.6,0.55 70.35,4.7" />
    <path
       style="fill:#1ea666;fill-opacity:1;stroke-width:1.735"
       id="path1513"
       d="m 92.75,143.2 q 20.2,-4.1 40.4,-4.3 2.15,8.45 4.65,16.75 -20.85,-5.9 -46.7,-6.7 l 1.65,-5.75" />
    <path
       style="fill:#1acd79;fill-opacity:1;stroke-width:1.735"
       id="path1703"
       d="m 171.25,256.7 1.75,2.95 -49.45,1.8 -6.35,0.55 -5.65,0.6 q -22,2.2 -44.55,6.1 l 2.05,-5.45 0.5,-1.45 q 49.1,-9.25 101.7,-5.1" />
    <path
       style="fill:#1acd79;fill-opacity:1;stroke-width:1.735"
       id="path1701"
       d="m 158.4,209.6 1.9,4 -8.45,-1 Q 116.1,208.45 81.5,207.9 l -13.5,-0.1 3.35,-6.75 q 41.15,0.5 87.05,8.55" />
    <path
       style="fill:#1acd79;fill-opacity:1;stroke-width:1.735"
       id="path1699-3"
       d="m 136.3,133.05 3.05,5.9 -6.2,-0.05 q -20.2,0.2 -40.4,4.3 l -6.8,1.5 1.25,-3.4 q 25,-8 49.1,-8.25" />
  </g>
  <path
     inkscape:export-ydpi="192"
     inkscape:export-xdpi="192"
     style="fill:url(#gradient30-0)"
     id="path397"
     d="m 540.09169,-119.66064 q -6.35,10.5 -9.7,21.200004 8.55,-9.500004 17.5,-14.750004 l 1,0.3 q -3.95,3.85 -7.3,7.9 3.05,-1.15 6.75,-2.2 l 1.9,0.4 q -7.85,4.55 -12.75,9.700004 5.15,-1.3 11.65,-0.85 l 0.6,0.75 q -8.5,1.75 -15.8,5.05 h -30.55 l 0.15,-0.4 q 6.2,-1.95 11.35,-1.8 -4.8,-8.000004 -14.65,-14.900004 l 1.95,-0.45 q 3.65,1.2 6.65,2.55 -3.15,-4.7 -6.85,-9.2 l 1.05,-0.35 q 8.6,6.1 13.05,13.75 2.6,2 4.1,4.300004 -2.9,-16.400004 -9.4,-32.300004 l 1.25,-0.15 q 9.15,12.7 11.45,26.25 2.65,-16.9 16.8,-33.3 l 1.5,0.05 q -7.65,14.85 -12.05,29.9 3.3,-5.9 9.15,-11.55 l 1.2,0.1"
     fill="url(#gradient30)"
     stroke="none" />
  <g
     style="stroke-width:1.1835"
     transform="matrix(0.84494831,0,0,0.84494831,116.4968,-39.09018)"
     inkscape:export-ydpi="192"
     inkscape:export-xdpi="192"
     id="g2261">
    <path
       style="fill:#f0f9fb;fill-opacity:1;stroke-width:1.1835"
       id="path1788"
       d="m 1027.6417,-137.76064 q -1.3,-3.4 -1.75,-7.1 l -0.05,-0.05 q -0.25,-2.1 -0.25,-4.35 l 0.1,-2.1 v -0.1 q 0.7,-11.7 9.2,-20.25 1.75,-1.8 3.65,-3.2 l 0.95,-1.05 0.4,-1.35 q 0.9,-10.25 8.5,-17.75 8.55,-8.6 20.7,-8.6 h 0.5 q 1.35,0 2.35,-1 1,-0.95 1,-2.35 l 0.05,-2.2 q 0.85,-14.25 11.2,-24.6 11.3,-11.3 27.2,-11.3 15.85,0 27.1,11.3 h 0.05 q 4.55,4.6 7.35,10.05 l 0.95,1.15 q 0.6,0.4 1.35,0.6 10.45,2.25 18.5,10.4 h 0.05 q 10.3,10.35 11.15,24.65 l 0.05,2.6 -0.2,5.3 v 0.25 l -0.6,3.1 q -0.25,1.2 0.35,2.25 0.55,1.1 1.7,1.55 4.1,1.65 7.5,5 l 1.7,1.9 q 0.55,0.75 1.45,1.1 l 1.8,0.1 3.95,-0.35 q 8,0 13.65,5.65 5.15,5.15 5.6,12.3 l 0.05,1.4 -0.15,2.7 -0.55,2.75 q -6.75,5.05 -15.75,5.7 l -2.85,0.1 h -1.35 q -5.55,-0.2 -10.2,-1.95 l 3.95,-2.95 1,-1 q 2.55,-2.5 4.25,-5.35 l -0.9,0.7 q -5.95,4.55 -13.5,6.05 l -8.05,0.8 -2.2,-0.05 -0.95,1.7 -1.15,0.9 q -11.05,8.55 -26.75,8.55 l -10.4,-1.05 q -4.95,-1.05 -9.35,-3.15 3.5,-2.45 6.7,-5.65 l 3.35,-3.65 q 2.1,-2.65 3.8,-5.5 l -1.55,1.2 q -8.5,6.6 -18.95,9.45 l -7.25,1.6 -10.3,0.7 q -7.85,0 -14.8,-1.6 -12.2,-2.7 -21.8,-10.15 l -1.35,-1.05 q 1.65,2.8 3.8,5.45 l 3.2,3.55 q 3.45,3.45 7.2,5.95 -5.1,1.45 -10.8,1.85 l -3.9,0.1 -9.7,-0.8 q -11.1,-1.95 -19.65,-8.6 l -0.35,-0.25" />
    <path
       style="fill:#d7f0f6;fill-opacity:1;stroke-width:1.1835"
       id="path1806"
       d="m 1214.1917,-139.36064 0.3,-0.25 0.8,-0.6 -1.6,2.35 -2.1,2.35 -2.2,2 q -5.3,4.2 -12.15,4.65 -0.75,2.05 -1.9,3.95 -1.7,2.95 -4.3,5.45 -7.7,7.75 -18.5,7.75 -4.4,0 -8.2,-1.25 -9.45,8.65 -22.45,8.65 -5.1,0 -9.65,-1.3 -9.4,6.450004 -21.4,6.450004 l -4.75,-0.3 q -13,-1.450004 -22.55,-11.100004 l -1.2,-1.2 -2.55,0.05 q -14.35,0 -24.9,-9.2 -13,-0.8 -22.4,-10.2 l -1.45,-1.5 -2.75,-3.5 -1.45,-2.25 0.8,0.6 0.35,0.25 q 8.55,6.65 19.65,8.6 l 9.7,0.8 3.9,-0.1 q 5.7,-0.4 10.8,-1.85 -3.75,-2.5 -7.2,-5.95 l -3.2,-3.55 q -2.15,-2.65 -3.8,-5.45 l 1.35,1.05 q 9.6,7.45 21.8,10.15 6.95,1.6 14.8,1.6 l 10.3,-0.7 7.25,-1.6 q 10.45,-2.85 18.95,-9.45 l 1.55,-1.2 q -1.7,2.85 -3.8,5.5 l -3.35,3.65 q -3.2,3.2 -6.7,5.65 4.4,2.1 9.35,3.15 l 10.4,1.05 q 15.7,0 26.75,-8.55 l 1.15,-0.9 0.95,-1.7 2.2,0.05 8.05,-0.8 q 7.55,-1.5 13.5,-6.05 l 0.9,-0.7 q -1.7,2.85 -4.25,5.35 l -1,1 -3.95,2.95 q 4.65,1.75 10.2,1.95 h 1.35 l 2.85,-0.1 q 9,-0.65 15.75,-5.7" />
  </g>
  <g
     style="stroke-width:1.1835"
     transform="matrix(0.84494831,0,0,0.84494831,116.4968,-39.09018)"
     inkscape:export-ydpi="192"
     inkscape:export-xdpi="192"
     id="g2265">
    <path
       style="fill:#f0f9fb;fill-opacity:1;stroke-width:1.1835"
       id="path1784"
       d="m 1278.5917,-152.46064 q -1.3,-3.4 -1.75,-7.15 l 0.05,0.05 q -0.3,-2.1 -0.3,-4.3 l 0.1,-2.25 q 0.7,-11.7 9.15,-20.1 8.95,-8.95 21.5,-9.25 1.3,-0.05 2.25,-0.9 0.9,-0.9 1,-2.15 1.5,-14.95 12.5,-25.9 12.75,-12.7 30.7,-12.7 14.2,0 25.15,8 0.9,0.65 2.05,0.65 1.1,0 2,-0.7 5.55,-4.45 12.95,-4.45 8.8,0 14.95,6.2 h 0.05 l 2.9,3.5 1.2,1.1 q 0.7,0.4 1.55,0.4 14.3,0.15 24.5,10.4 h 0.05 q 4.55,4.55 7.1,9.95 0.4,0.9 1.3,1.45 0.85,0.5 1.85,0.45 l 3.15,0.05 q 13.65,0.7 22.8,10.85 8.4,9.2 8.55,21.4 v 0.05 l -0.05,2.3 -0.5,4.55 q -0.75,3.65 -2.15,6.95 l -1.05,0.7 q -2.85,2 -5.95,3.5 -11,5.35 -24.9,4.6 -6.35,-0.35 -12,-1.9 -3.1,-0.8 -5.95,-2 l 0.4,-0.65 2.15,-4.25 -1.2,1.2 -3.2,2.85 q -11.25,9.15 -27.5,11.05 l -6.1,0.45 q -6.35,0.1 -12.2,-1.1 4.65,-2.75 8.75,-6.85 l 3.35,-3.65 3.75,-5.45 -1.5,1.2 q -11.15,8.6 -25.8,10.85 l -10.75,0.8 q -16.65,0 -29.5,-7 -3.75,-2.05 -7.1,-4.65 l -1.4,-1.1 q 1.7,2.85 3.85,5.45 l 1.7,1.95 q -3.45,1.75 -7.2,2.95 -7.2,2.2 -15.55,2.2 l -4.95,-0.2 q -14.05,-1.2 -24.4,-9.1 l -0.35,-0.3" />
    <path
       style="fill:#d7f0f6;fill-opacity:1;stroke-width:1.1835"
       id="path1802"
       d="m 1483.4417,-154.21064 -0.5,0.7 q -2,2.85 -4.55,5.4 l -1.25,1.1 -5.65,4.3 -2.3,2.45 q -10.4,10.4 -25.15,10.4 -6.5,0 -12.1,-2 l -1.65,1.65 q -11.25,11.35 -27.25,11.35 l -2.15,-0.05 q -11.15,10.75 -26.75,10.75 -15.95,0 -27.3,-11.3 l -0.9,-0.95 -7,0.6 q -16.05,0 -27.35,-11.35 -2.2,-2.15 -3.95,-4.45 -14.15,-0.2 -24.15,-10.25 l -1.35,-1.4 -2.8,-3.55 -1.5,-2.3 0.75,0.65 0.35,0.3 q 10.35,7.9 24.4,9.1 l 4.95,0.2 q 8.35,0 15.55,-2.2 3.75,-1.2 7.2,-2.95 l -1.7,-1.95 q -2.15,-2.6 -3.85,-5.45 l 1.4,1.1 q 3.35,2.6 7.1,4.65 12.85,7 29.5,7 l 10.75,-0.8 q 14.65,-2.25 25.8,-10.85 l 1.5,-1.2 -3.75,5.45 -3.35,3.65 q -4.1,4.1 -8.75,6.85 5.85,1.2 12.2,1.1 l 6.1,-0.45 q 16.25,-1.9 27.5,-11.05 l 3.2,-2.85 1.2,-1.2 -2.15,4.25 -0.4,0.65 q 2.85,1.2 5.95,2 5.65,1.55 12,1.9 13.9,0.75 24.9,-4.6 3.1,-1.5 5.95,-3.5 l 1.05,-0.7 0.25,-0.2" />
  </g>
  <g
     style="stroke-width:1.1835"
     transform="matrix(0.84494831,0,0,0.84494831,116.4968,-39.09018)"
     inkscape:export-ydpi="192"
     inkscape:export-xdpi="192"
     id="g2257">
    <path
       style="fill:#f0f9fb;fill-opacity:1;stroke-width:1.1835"
       id="path1780"
       d="m 752.44169,-148.91064 -0.65,-3.1 -0.05,-0.05 q -0.15,-1.35 -0.15,-2.7 l 0.05,-1.3 v -0.1 q 0.4,-6.5 4.55,-11.5 v -0.05 l 1.4,-1.45 q 0.85,-0.9 1.8,-1.65 l 0.95,-1.35 0.25,-1.6 -0.15,-1.85 0.1,-0.95 v -0.2 q 0.3,-5.8 4.6,-10 4.65,-4.65 11.2,-4.65 4.9,-0.05 8.65,2.45 0.7,0.5 1.55,0.6 l 1.65,-0.3 q 2.4,-1 5.05,-1.5 1.05,-0.2 1.8,-1 0.75,-0.85 0.85,-1.95 0.95,-8.55 7.45,-14.85 7.5,-7.5 18.15,-7.5 l 6.5,0.75 q 0.9,0.25 1.75,0 0.9,-0.3 1.5,-0.95 l 1.3,-1.3 q 11.3,-11.2 27.2,-11.2 15.9,0 27.2,11.2 8.45,8.35 10.55,19.3 0.15,0.85 0.75,1.5 0.55,0.6 1.35,0.95 4.45,1.7 8.25,4.8 l 1.35,0.65 1.5,0.05 3.45,-0.35 q 6.5,0 11.25,4.65 4.15,4.05 4.6,9.8 0.05,1 0.8,1.85 0.75,0.85 1.8,1.05 5.25,1.2 9.35,5.15 5.45,5.35 5.9,12.75 l 0.05,1.35 -0.15,2.95 v -0.1 l -0.65,3.15 q -7.55,5.75 -17.85,6.35 l -1.7,0.1 -8.55,-0.8 q -4.25,-0.9 -7.95,-2.95 l 1.65,-1.6 1.9,-2 q 2.35,-2.7 4.05,-5.6 -0.65,0.5 -1.25,0.95 -4.6,3.65 -9.85,6 -9.2,4 -20.45,4.2 l -11.2,-0.8 q -4.6,-0.85 -8.75,-2.45 l 2.75,-2.5 2.65,-2.95 q 2.25,-2.65 3.9,-5.55 l -1.4,1.15 q -6,4.7 -13.05,7.5 -9.4,3.55 -20.6,3.8 -16.65,0.35 -29.2,-6.95 -2.35,-1.4 -4.55,-3 l -1.25,-0.95 q 1.45,2.45 3.4,4.75 l -0.25,0.05 q -3.15,0.95 -6.5,1.35 l -5.05,0.35 -6.95,-0.35 q -9.8,-1.3 -17.35,-6.9 l -0.9,-0.7 q 1.85,3.15 4.65,5.85 l 0.3,0.3 q 3.3,3.1 7.1,4.95 -5.05,2.1 -11,2.5 l -1.9,0.05 -1.25,0.05 q -9.75,-0.1 -17.05,-4.8 l -1.2,-0.85" />
    <path
       style="fill:#d7f0f6;fill-opacity:1;stroke-width:1.1835"
       id="path1798"
       d="m 947.09169,-147.46064 0.25,-0.2 0.85,-0.65 -1.65,2.35 -2.25,2.6 -1.6,1.55 q -6.5,5.5 -15.15,5.65 h -1.6 l -1.4,1.55 q -6.95,7 -16.75,7.2 l -6.65,-0.75 q -8.15,6.35 -18.85,6.55 -8.45,0.2 -15.25,-3.55 -10.5,7.75 -24.05,8 -16.15,0.35 -27.95,-9.95 -6.55,3.65 -14.65,3.75 -13.05,0.3 -22.25,-8.7 -3.05,-2.9 -5.1,-6.25 l -0.05,-0.1 h -1.05 q -8.4,0.15 -14.7,-4.75 l -2.05,-1.8 -1.55,-1.6 -0.7,-0.8 -1.6,-2.35 0.75,0.55 0.35,0.25 1.2,0.85 q 7.3,4.7 17.05,4.8 l 1.25,-0.05 1.9,-0.05 q 5.95,-0.4 11,-2.5 -3.8,-1.85 -7.1,-4.95 l -0.3,-0.3 q -2.8,-2.7 -4.65,-5.85 l 0.9,0.7 q 7.55,5.6 17.35,6.9 l 6.95,0.35 5.05,-0.35 q 3.35,-0.4 6.5,-1.35 l 0.25,-0.05 q -1.95,-2.3 -3.4,-4.75 l 1.25,0.95 q 2.2,1.6 4.55,3 12.55,7.3 29.2,6.95 11.2,-0.25 20.6,-3.8 7.05,-2.8 13.05,-7.5 l 1.4,-1.15 q -1.65,2.9 -3.9,5.55 l -2.65,2.95 -2.75,2.5 q 4.15,1.6 8.75,2.45 l 11.2,0.8 q 11.25,-0.2 20.45,-4.2 5.25,-2.35 9.85,-6 0.6,-0.45 1.25,-0.95 -1.7,2.9 -4.05,5.6 l -1.9,2 -1.65,1.6 q 3.7,2.05 7.95,2.95 l 8.55,0.8 1.7,-0.1 q 10.3,-0.6 17.85,-6.35" />
  </g>
  <g
     style="stroke-width:1.1835"
     transform="matrix(0.84494831,0,0,0.84494831,116.4968,-39.09018)"
     inkscape:export-ydpi="192"
     inkscape:export-xdpi="192"
     id="g2269">
    <path
       sodipodi:nodetypes="cccccssccccccccccscscccccscscccscccccccssscccccccccccccccccccccccccccccccccccccscccccccccc"
       style="fill:#f0f9fb;fill-opacity:1;stroke-width:1.1835"
       id="path487"
       d="m 1555.0417,-159.36064 c -0.5667,-1.63333 -2.0234,-3.33333 -2.2567,-5.1 -0.1667,-1.2 -0.25,-2.43333 -0.25,-3.7 l 0.1,-1.75 v -0.05 c 0.3667,-6.46667 5.94,-12.03333 10.6067,-16.7 5.1,-5.1 11.2667,-7.65 18.5,-7.65 2.8,0 5.45,0.38333 7.95,1.15 0.6333,0.2 1.2833,0.2 1.95,0 0.6667,-0.23333 1.2167,-0.61667 1.65,-1.15 0.9667,-1.26667 2.0667,-2.5 3.3,-3.7 3.5,-3.5 7.35,-6.13333 11.55,-7.9 0.6333,-0.3 1.1333,-0.75 1.5,-1.35 0.3667,-0.56667 0.55,-1.2 0.55,-1.9 l -0.05,-0.85 0.05,-0.9 c 0.2,-3.3 1.4833,-6.11667 3.85,-8.45 2.5667,-2.6 5.6667,-3.9 9.3,-3.9 2.7667,0 5.2167,0.75 7.35,2.25 0.5667,0.36667 1.2,0.55 1.9,0.55 0.6667,0 1.3,-0.18333 1.9,-0.55 7.0667,-4.9 15.1,-7.41667 24.1,-7.55 0.7,0 1.3167,-0.2 1.85,-0.6 0.5667,-0.4 0.9833,-0.93333 1.25,-1.6 1.5333,-4.33333 4.0833,-8.26667 7.65,-11.8 6.3333,-6.36667 14.0167,-9.55 23.05,-9.55 6.2667,0 11.8833,1.53333 16.85,4.6 2.2,1.36667 4.2667,3.01667 6.2,4.95 1.5333,1.53333 2.9,3.15 4.1,4.85 0.3667,0.56667 0.8833,0.98333 1.55,1.25 l 1.95,0.15 c 2.8667,-0.7 5.8833,-1.05 9.05,-1.05 10.3,0 19.1,3.65 26.4,10.95 h -0.05 c 6.6667,6.66667 10.3,14.61667 10.9,23.85 l 0.05,2.55 -0.05,2.2 c -0.033,0.63333 0.1,1.21667 0.4,1.75 l 1.25,1.3 c 0.5333,0.3 1.1,0.45 1.7,0.45 h 0.05 c 7.2333,0 13.4,2.55 18.5,7.65 4.6667,4.66667 7.2,10.25 7.6,16.75 l 0.05,1.75 c 0,3.1 -0.45,6 -1.35,8.7 l -0.15,0.1 c -5.8,4.5 -12.6333,7.08333 -20.5,7.75 l -4.15,0.15 -6.35,-0.4 c -3.9667,-0.53333 -7.65,-1.56667 -11.05,-3.1 3.5667,-1.76667 6.8833,-4.18333 9.95,-7.25 l 1.9,-2 c 1.5667,-1.8 2.9333,-3.7 4.1,-5.7 l -1.25,1.05 c -6.4333,4.96667 -13.8833,8.05 -22.35,9.25 l -0.25,0.05 -7.35,0.5 -1.05,1.85 -1.5,1.2 c -1.8667,1.43333 -3.8,2.73333 -5.8,3.9 -6.7,3.93333 -14.2,6.36667 -22.5,7.3 l -8.1,0.45 -7.65,-0.35 c -4.2,-0.46667 -8.1833,-1.3 -11.95,-2.5 4.3333,-2.26667 8.3667,-5.26667 12.1,-9 1.5333,-1.5 2.9333,-3.06667 4.2,-4.7 h 0.05 l 3.65,-5.35 -1.75,1.3 c -8.7,6.73333 -18.8,10.83333 -30.3,12.3 l -3,0.3 -5.5,0.3 h -1.45 l -6.45,-0.25 0.55,-0.7 c 1.5333,-1.8 2.8667,-3.65 4,-5.55 l -1.4,1.1 c -2.3333,1.8 -4.7833,3.36667 -7.35,4.7 -4.0333,2.1 -8.3667,3.66667 -13,4.7 -4.1667,0.86667 -8.5833,1.3 -13.25,1.3 -8.5333,0 -16.25,-1.5 -23.15,-4.5 l -4.35,-2.15 c -2.1667,-1.2 -4.2167,-2.55 -6.15,-4.05 l -1.25,-1 c 1.1,1.9 2.4,3.73333 3.9,5.5 l 0.35,0.4 -7.6,1.05 -2.65,0.05 c -9.6333,0 -17.9461,-1.48052 -24.7461,-6.74719 l -2.5303,-0.76854" />
    <path
       style="fill:#d7f0f6;fill-opacity:1;stroke-width:1.1835"
       id="path1794"
       d="m 1797.5417,-159.46064 0.9,-0.7 -1.55,2.35 -3.25,3.75 -0.05,0.05 q -8.15,8.2 -19.55,8.6 -2.25,3.75 -5.6,7.15 -10.1,10.15 -24.45,10.15 h -1.35 q -1.55,2.35 -3.7,4.5 -7.4,7.45 -18,7.45 -6.4,0 -11.7,-2.75 -3.4,-1.8 -6.3,-4.7 l -2,-2.25 q -10.15,5.4 -22.5,5.4 -13.15,0 -23.8,-6.1 -9.4,5.9 -21.25,5.9 -16.85,0 -28.75,-11.9 l -2.25,-2.45 q -7,3.55 -15.55,3.55 -14.3,0 -24.45,-10.15 -3.35,-3.4 -5.55,-7.15 -4.6,-7.75 -4.6,-17.35 l 0.1,-2.35 v -0.05 q 0.95,3.55 3.8,8.45 l 0.9,0.7 h 0.05 q 10.2,7.9 24.65,7.9 l 2.65,-0.05 7.6,-1.05 -0.35,-0.4 q -2.25,-2.65 -3.9,-5.5 l 1.25,1 q 2.9,2.25 6.15,4.05 l 4.35,2.15 q 10.35,4.5 23.15,4.5 7,0 13.25,-1.3 6.95,-1.55 13,-4.7 3.85,-2 7.35,-4.7 l 1.4,-1.1 q -1.7,2.85 -4,5.55 l -0.55,0.7 6.45,0.25 h 1.45 l 5.5,-0.3 3,-0.3 q 17.25,-2.2 30.3,-12.3 l 1.75,-1.3 -3.65,5.35 h -0.05 q -1.9,2.45 -4.2,4.7 -5.6,5.6 -12.1,9 5.65,1.8 11.95,2.5 l 7.65,0.35 8.1,-0.45 q 12.45,-1.4 22.5,-7.3 3,-1.75 5.8,-3.9 l 1.5,-1.2 1.05,-1.85 7.35,-0.5 0.25,-0.05 q 12.7,-1.8 22.35,-9.25 l 1.25,-1.05 q -1.75,3 -4.1,5.7 l -1.9,2 q -4.6,4.6 -9.95,7.25 5.1,2.3 11.05,3.1 l 6.35,0.4 4.15,-0.15 q 11.8,-1 20.5,-7.75 l 0.15,-0.1" />
  </g>
</svg>
