<?xml version="1.0" encoding="UTF-8" standalone="no"?>
<!-- Generator: Adobe Illustrator 19.0.0, SVG Export Plug-In . SVG Version: 6.00 Build 0)  -->

<svg
   xmlns:dc="http://purl.org/dc/elements/1.1/"
   xmlns:cc="http://creativecommons.org/ns#"
   xmlns:rdf="http://www.w3.org/1999/02/22-rdf-syntax-ns#"
   xmlns:svg="http://www.w3.org/2000/svg"
   xmlns="http://www.w3.org/2000/svg"
   xmlns:sodipodi="http://sodipodi.sourceforge.net/DTD/sodipodi-0.dtd"
   xmlns:inkscape="http://www.inkscape.org/namespaces/inkscape"
   version="1.1"
   id="Layer_1"
   x="0px"
   y="0px"
   width="452"
   height="390"
   viewBox="0 0 452 390"
   enable-background="new 0 0 1400 980"
   xml:space="preserve"
   sodipodi:docname="4_normal_1.svg"
   inkscape:version="0.92.3 (2405546, 2018-03-11)"><metadata
   id="metadata4847"><rdf:RDF><cc:Work
       rdf:about=""><dc:format>image/svg+xml</dc:format><dc:type
         rdf:resource="http://purl.org/dc/dcmitype/StillImage" /><dc:title /></cc:Work></rdf:RDF></metadata><defs
   id="defs4845">
	
	
	
	
	
	
	
	
	
	
	
	
	
	
	
	
	
	
	
	
	
	
	
	
	
	
	
	
	
	
	
</defs><sodipodi:namedview
   pagecolor="#ffffff"
   bordercolor="#666666"
   borderopacity="1"
   objecttolerance="10"
   gridtolerance="10"
   guidetolerance="10"
   inkscape:pageopacity="0"
   inkscape:pageshadow="2"
   inkscape:window-width="1920"
   inkscape:window-height="1001"
   id="namedview4843"
   showgrid="true"
   inkscape:zoom="1.8101934"
   inkscape:cx="193.39487"
   inkscape:cy="216.61496"
   inkscape:window-x="-9"
   inkscape:window-y="-9"
   inkscape:window-maximized="1"
   inkscape:current-layer="g5034"><inkscape:grid
     type="xygrid"
     id="grid4975" /></sodipodi:namedview>







<g
   id="g4933"
   transform="translate(0,-590)" /><g
   id="g5034"
   transform="matrix(0,1.3071351,-1.3071351,0,644.55555,1303.7992)"
   style="stroke-width:0.76503181"><path
     style="opacity:1;fill:#d2d2d2;fill-opacity:1;fill-rule:evenodd;stroke:#797979;stroke-width:0;stroke-linecap:round;stroke-linejoin:round;stroke-miterlimit:4;stroke-dasharray:none;stroke-dashoffset:0;stroke-opacity:1"
     id="path4883"
     sodipodi:type="arc"
     sodipodi:cx="263.8327"
     sodipodi:cy="914.56073"
     sodipodi:rx="114.32182"
     sodipodi:ry="81.138268"
     sodipodi:start="0"
     sodipodi:end="3.1415927"
     sodipodi:open="true"
     d="m 378.15453,914.56073 a 114.32182,81.138268 0 0 1 -57.16092,70.2678 114.32182,81.138268 0 0 1 -114.32182,0 114.32182,81.138268 0 0 1 -57.16091,-70.2678"
     transform="rotate(90)" /><path
     transform="rotate(90)"
     d="m 369.41531,917.04175 a 107.13324,74.935738 0 0 1 -53.56662,64.89625 107.13324,74.935738 0 0 1 -107.13324,0 107.13324,74.935738 0 0 1 -53.56662,-64.89626"
     sodipodi:open="true"
     sodipodi:end="3.1415927"
     sodipodi:start="0"
     sodipodi:ry="74.935738"
     sodipodi:rx="107.13324"
     sodipodi:cy="917.04175"
     sodipodi:cx="262.28207"
     sodipodi:type="arc"
     id="path4920"
     style="opacity:1;fill:#1bc0ff;fill-opacity:1;fill-rule:evenodd;stroke:#797979;stroke-width:0;stroke-linecap:round;stroke-linejoin:round;stroke-miterlimit:4;stroke-dasharray:none;stroke-dashoffset:0;stroke-opacity:1" /><path
     style="opacity:1;fill:#d2d2d2;fill-opacity:1;fill-rule:evenodd;stroke:#797979;stroke-width:0;stroke-linecap:round;stroke-linejoin:round;stroke-miterlimit:4;stroke-dasharray:none;stroke-dashoffset:0;stroke-opacity:1"
     id="path4926"
     sodipodi:type="arc"
     sodipodi:cx="262.59216"
     sodipodi:cy="915.80127"
     sodipodi:rx="106.20286"
     sodipodi:ry="74.935738"
     sodipodi:start="0"
     sodipodi:end="3.1415927"
     sodipodi:open="true"
     d="m 368.79502,915.80127 a 106.20286,74.935738 0 0 1 -53.10143,64.89625 106.20286,74.935738 0 0 1 -106.20286,0 106.20286,74.935738 0 0 1 -53.10142,-64.89625"
     transform="rotate(90)" /><path
     transform="rotate(90)"
     d="m 375.11018,903.9682 a 102.35911,81.138268 0 0 1 -51.17956,70.2678 102.35911,81.138268 0 0 1 -102.35911,0 102.35911,81.138268 0 0 1 -51.17955,-70.2678"
     sodipodi:open="true"
     sodipodi:end="3.1415927"
     sodipodi:start="0"
     sodipodi:ry="81.138268"
     sodipodi:rx="102.35911"
     sodipodi:cy="903.9682"
     sodipodi:cx="272.75107"
     sodipodi:type="arc"
     id="path4918"
     style="opacity:0.41999996;fill:#868686;fill-opacity:1;fill-rule:evenodd;stroke:#797979;stroke-width:0;stroke-linecap:round;stroke-linejoin:round;stroke-miterlimit:4;stroke-dasharray:none;stroke-dashoffset:0;stroke-opacity:1" /><path
     style="opacity:1;fill:#d2d2d2;fill-opacity:1;fill-rule:evenodd;stroke:#797979;stroke-width:0;stroke-linecap:round;stroke-linejoin:round;stroke-miterlimit:4;stroke-dasharray:none;stroke-dashoffset:0;stroke-opacity:1"
     id="path4883-9"
     sodipodi:type="arc"
     sodipodi:cx="263.94193"
     sodipodi:cy="-780.22375"
     sodipodi:rx="114.32182"
     sodipodi:ry="81.138268"
     sodipodi:start="0"
     sodipodi:end="3.1415927"
     sodipodi:open="true"
     d="m 378.26375,-780.22375 a 114.32182,81.138268 0 0 1 -57.16091,70.2678 114.32182,81.138268 0 0 1 -114.32183,-10e-6 114.32182,81.138268 0 0 1 -57.16091,-70.2678"
     transform="matrix(0,1,1,0,0,0)" /><path
     transform="matrix(0,1,1,0,0,0)"
     d="m 369.52454,-777.74274 a 107.13324,74.935738 0 0 1 -53.56663,64.89626 107.13324,74.935738 0 0 1 -107.13324,-10e-6 107.13324,74.935738 0 0 1 -53.56661,-64.89625"
     sodipodi:open="true"
     sodipodi:end="3.1415927"
     sodipodi:start="0"
     sodipodi:ry="74.935738"
     sodipodi:rx="107.13324"
     sodipodi:cy="-777.74274"
     sodipodi:cx="262.3913"
     sodipodi:type="arc"
     id="path4920-3"
     style="opacity:1;fill:#1bc0ff;fill-opacity:1;fill-rule:evenodd;stroke:#797979;stroke-width:0;stroke-linecap:round;stroke-linejoin:round;stroke-miterlimit:4;stroke-dasharray:none;stroke-dashoffset:0;stroke-opacity:1" /><path
     style="opacity:1;fill:#d2d2d2;fill-opacity:1;fill-rule:evenodd;stroke:#797979;stroke-width:0;stroke-linecap:round;stroke-linejoin:round;stroke-miterlimit:4;stroke-dasharray:none;stroke-dashoffset:0;stroke-opacity:1"
     id="path4926-5"
     sodipodi:type="arc"
     sodipodi:cx="262.70139"
     sodipodi:cy="-778.98322"
     sodipodi:rx="106.20286"
     sodipodi:ry="74.935738"
     sodipodi:start="0"
     sodipodi:end="3.1415927"
     sodipodi:open="true"
     d="m 368.90424,-778.98322 a 106.20286,74.935738 0 0 1 -53.10143,64.89626 106.20286,74.935738 0 0 1 -106.20286,0 106.20286,74.935738 0 0 1 -53.10142,-64.89626"
     transform="matrix(0,1,1,0,0,0)" /><path
     transform="matrix(0,1,1,0,0,0)"
     d="m 375.2194,-790.81628 a 102.35911,81.138268 0 0 1 -51.17956,70.2678 102.35911,81.138268 0 0 1 -102.35911,0 102.35911,81.138268 0 0 1 -51.17955,-70.26781"
     sodipodi:open="true"
     sodipodi:end="3.1415927"
     sodipodi:start="0"
     sodipodi:ry="81.138268"
     sodipodi:rx="102.35911"
     sodipodi:cy="-790.81628"
     sodipodi:cx="272.86029"
     sodipodi:type="arc"
     id="path4918-0"
     style="opacity:0.41999996;fill:#868686;fill-opacity:1;fill-rule:evenodd;stroke:#797979;stroke-width:0;stroke-linecap:round;stroke-linejoin:round;stroke-miterlimit:4;stroke-dasharray:none;stroke-dashoffset:0;stroke-opacity:1" /><g
     style="stroke-width:0.81984752"
     id="XMLID_174_"
     transform="matrix(0.87074884,0,0,1,-1465.6985,-335.99447)">
		
		
		
		
	</g><g
     style="stroke-width:0.81984752"
     id="XMLID_193_"
     transform="matrix(0.87074884,0,0,1,-1465.6985,-335.99447)">
		
		
		
		
	</g><g
     style="stroke-width:0.81984752"
     id="XMLID_61_"
     transform="matrix(0.87074884,0,0,1,-1465.6985,-335.99447)">
		<path
   id="XMLID_163_"
   d="m 689.6,771.9 c 0,31.6 -7.8,57.2 -17.4,57.2 -9.6,0 -17.4,-25.6 -17.4,-57.2 z"
   inkscape:connector-curvature="0"
   style="fill:#00badb;fill-opacity:1;stroke-width:0.81984752" />
		<rect
   id="XMLID_66_"
   x="653.59998"
   y="758"
   width="37.099998"
   height="10.6"
   style="fill:#c9c9c9;stroke-width:0.81984752" />
		<path
   id="XMLID_165_"
   d="m 764.7,771.9 c 0,31.6 -7.8,57.2 -17.4,57.2 -9.6,0 -17.4,-25.6 -17.4,-57.2 z"
   inkscape:connector-curvature="0"
   style="fill:#00badb;fill-opacity:1;stroke-width:0.81984752" />
		<rect
   id="XMLID_164_"
   x="728.70001"
   y="758"
   width="37.099998"
   height="10.6"
   style="fill:#c9c9c9;stroke-width:0.81984752" />
	<path
   style="fill:#1edcff;fill-opacity:1;stroke-width:0.81984752"
   inkscape:connector-curvature="0"
   d="m 759.15565,771.98764 c 0,20.51454 -5.06372,37.13391 -11.29598,37.13391 -6.23227,0 -11.29597,-16.61937 -11.29597,-37.13391 z"
   id="path4358" /><path
   id="path4513"
   d="m 683.59685,771.98764 c 0,20.51454 -5.06372,37.13391 -11.29598,37.13391 -6.23227,0 -11.29597,-16.61937 -11.29597,-37.13391 z"
   inkscape:connector-curvature="0"
   style="fill:#1edcff;fill-opacity:1;stroke-width:0.81984752" /></g><path
     id="XMLID_183_"
     d="m -733.74703,342.30553 c -10.71021,19.5 -28.12518,41.3 -50.2422,57.2 v 15.4 c 0,5.2 -3.65715,9.4 -8.18504,9.4 H -903.3689 c -4.52789,0 -8.18504,-4.2 -8.18504,-9.4 v -14 c -20.28845,-14.7 -35.96193,-34.8 -47.28166,-53.5 -51.3742,-84.6 7.74966,-193.8 107.36333,-196 0.95783,0 2.00272,0 2.96055,0 h 0.78367 c 18.45988,0.1 35.96193,3.9 51.89663,10.6 70.35651,29.7 98.65585,113.7 62.08439,180.3 z"
     inkscape:connector-curvature="0"
     style="fill:#e8e8e8;stroke-width:0.76503187" /><path
     id="XMLID_176_"
     d="m -733.74703,342.30553 c -10.71021,19.5 -28.12518,42.7 -50.2422,58.6 v 14 c 0,5.2 -3.65715,9.4 -8.18504,9.4 h -55.64085 v -272.9 c 18.45987,0.1 35.96192,3.9 51.89663,10.6 70.44358,29.7 98.74292,113.7 62.17146,180.3 z"
     inkscape:connector-curvature="0"
     style="fill:#dadcdb;stroke-width:0.76503187" /><rect
     id="XMLID_50_"
     x="-911.55389"
     y="400.90555"
     width="80.370117"
     height="11.2"
     style="fill:#dadcdb;stroke-width:0.76503187" /><rect
     id="XMLID_181_"
     x="-847.72803"
     y="400.90555"
     width="63.825893"
     height="11.2"
     style="fill:#c9c9c9;stroke-width:0.76503187" /><g
     style="stroke-width:0.81984752"
     id="XMLID_151_"
     transform="matrix(0.87074884,0,0,1,-1465.6985,-335.99447)">
		
		
		
		
		<g
   style="stroke-width:0.81984752"
   id="XMLID_166_">
			
		</g>
	</g><path
     id="XMLID_210_"
     d="m -905.1104,389.80553 c -15.67348,-11.3 -29.95376,-27.5 -42.49254,-48.1 -20.02722,-33 -22.5524,-72.1 -6.87892,-107.3 18.45988,-41.6 58.07895,-68 103.44497,-68.9 0.87074,0 1.74149,0 2.61224,0 h 0.6966 c 16.19593,0.1 31.95648,3.3 46.67214,9.5 31.78233,13.4 55.64085,40.1 65.39324,73.3 8.88164,29.9 5.48572,61.5 -9.57824,88.9 -10.97144,19.9 -27.34151,38.6 -45.10479,51.4 l -0.43537,-0.8 c 17.58912,-12.7 33.9592,-31.3 44.84356,-51.1 14.88981,-27.2 18.28573,-58.5 9.49116,-88.2 -9.75238,-32.9 -33.43675,-59.4 -64.95786,-72.7 -14.62858,-6.2 -30.30206,-9.4 -46.41091,-9.5 h -0.6966 c -0.87075,0 -1.7415,0 -2.61225,0 -45.01771,1 -84.37556,27.2 -102.66129,68.4 -15.49933,34.9 -12.97415,73.7 6.87892,106.4 12.45171,20.5 26.64491,36.6 42.23132,47.8 z"
     inkscape:connector-curvature="0"
     style="fill:#c9c9c9;stroke-width:0.76503187" /><g
     style="stroke-width:0.81984752"
     id="XMLID_198_"
     transform="matrix(0.87074884,0,0,1,-1465.6985,-335.99447)">
		
		
		
		
		
	</g><g
     style="stroke-width:0.81984752"
     id="XMLID_204_"
     transform="matrix(0.87074884,0,0,1,-1465.6985,-335.99447)">
		
		
		
		
		
	</g><circle
     id="XMLID_171_"
     cx="-761.16638"
     cy="226.36777"
     style="fill:#24c3ff;stroke-width:0.76503187"
     r="5.7377391" /><circle
     id="XMLID_212_"
     cx="-761.16638"
     cy="330.66776"
     style="fill:#24c3ff;stroke-width:0.76503187"
     r="5.7377391" /><circle
     id="XMLID_217_"
     cx="-934.44543"
     cy="226.36777"
     style="fill:#24c3ff;stroke-width:0.76503187"
     r="5.7377391" /><circle
     id="XMLID_216_"
     cx="-934.44543"
     cy="330.66776"
     style="fill:#24c3ff;stroke-width:0.76503187"
     r="5.7377391" /><g
     style="stroke-width:0.81984752"
     transform="matrix(0,1,-0.87074884,0,-647.98235,1376.2876)"
     id="g4858"><circle
       style="opacity:1;fill:#1bc0ff;fill-opacity:1;fill-rule:evenodd;stroke:#797979;stroke-width:0;stroke-linecap:round;stroke-linejoin:round;stroke-miterlimit:4;stroke-dasharray:none;stroke-dashoffset:0;stroke-opacity:1"
       id="path4853"
       cx="-1098.656"
       cy="230.01927"
       r="59.209007" /></g><path
     d="m 336.8406,-848.27136 a 59.209007,51.556175 0 0 1 -29.60451,44.64896 59.209007,51.556175 0 0 1 -59.209,-10e-6 59.209007,51.556175 0 0 1 -29.60451,-44.64895 l 59.20901,0 z"
     sodipodi:end="3.1415927"
     sodipodi:start="0"
     sodipodi:ry="51.556175"
     sodipodi:rx="59.209007"
     sodipodi:cy="-848.27136"
     sodipodi:cx="277.63159"
     sodipodi:type="arc"
     style="opacity:1;fill:#00b5f7;fill-opacity:1;fill-rule:evenodd;stroke:#797979;stroke-width:0;stroke-linecap:round;stroke-linejoin:round;stroke-miterlimit:4;stroke-dasharray:none;stroke-dashoffset:0;stroke-opacity:1"
     id="circle4855"
     transform="matrix(0,1,1,0,0,0)" /><rect
     y="412.10556"
     x="-911.55389"
     height="2.0961812"
     width="127.57739"
     id="rect4869"
     style="opacity:1;fill:#1bc0ff;fill-opacity:1;fill-rule:evenodd;stroke:#797979;stroke-width:0;stroke-linecap:round;stroke-linejoin:round;stroke-miterlimit:4;stroke-dasharray:none;stroke-dashoffset:0;stroke-opacity:1" /><rect
     style="opacity:1;fill:#00b5f7;fill-opacity:1;fill-rule:evenodd;stroke:#797979;stroke-width:0;stroke-linecap:round;stroke-linejoin:round;stroke-miterlimit:4;stroke-dasharray:none;stroke-dashoffset:0;stroke-opacity:1"
     id="rect4871"
     width="63.645618"
     height="2.0961812"
     x="-847.62213"
     y="412.10556" /><rect
     style="opacity:1;fill:#1bc0ff;fill-opacity:1;fill-rule:evenodd;stroke:#797979;stroke-width:0;stroke-linecap:round;stroke-linejoin:round;stroke-miterlimit:4;stroke-dasharray:none;stroke-dashoffset:0;stroke-opacity:1"
     id="rect4877"
     width="127.57739"
     height="2.0961812"
     x="-911.55389"
     y="400.90555" /><rect
     y="400.90555"
     x="-847.62213"
     height="2.0961812"
     width="63.645618"
     id="rect4879"
     style="opacity:1;fill:#00b5f7;fill-opacity:1;fill-rule:evenodd;stroke:#797979;stroke-width:0;stroke-linecap:round;stroke-linejoin:round;stroke-miterlimit:4;stroke-dasharray:none;stroke-dashoffset:0;stroke-opacity:1" /></g></svg>