<?xml version="1.0" encoding="UTF-8" standalone="no"?>
<!-- Created with Inkscape (http://www.inkscape.org/) -->

<svg
   xmlns:dc="http://purl.org/dc/elements/1.1/"
   xmlns:cc="http://creativecommons.org/ns#"
   xmlns:rdf="http://www.w3.org/1999/02/22-rdf-syntax-ns#"
   xmlns:svg="http://www.w3.org/2000/svg"
   xmlns="http://www.w3.org/2000/svg"
   xmlns:sodipodi="http://sodipodi.sourceforge.net/DTD/sodipodi-0.dtd"
   xmlns:inkscape="http://www.inkscape.org/namespaces/inkscape"
   version="1.1"
   id="svg2"
   inkscape:version="0.92.3 (2405546, 2018-03-11)"
   sodipodi:docname="7_normal_1.svg"
   width="473"
   height="495">
  <metadata
     id="metadata8">
    <rdf:RDF>
      <cc:Work
         rdf:about="">
        <dc:format>image/svg+xml</dc:format>
        <dc:type
           rdf:resource="http://purl.org/dc/dcmitype/StillImage" />
        <dc:title />
      </cc:Work>
    </rdf:RDF>
  </metadata>
  <defs
     id="defs6">
    <clipPath
       clipPathUnits="userSpaceOnUse"
       id="clipPath5995">
      <rect
         style="opacity:0.42300002;fill:#ff5555;fill-opacity:1;fill-rule:evenodd;stroke:#ffffff;stroke-width:0;stroke-linecap:round;stroke-linejoin:round;stroke-miterlimit:4;stroke-dasharray:none;stroke-dashoffset:0;stroke-opacity:1"
         id="rect5997"
         width="106.14407"
         height="87.817795"
         x="710.8172"
         y="254.71826" />
    </clipPath>
  </defs>
  <sodipodi:namedview
     pagecolor="#000000"
     bordercolor="#666666"
     borderopacity="1"
     objecttolerance="10"
     gridtolerance="10"
     guidetolerance="10"
     inkscape:pageopacity="0.6745098"
     inkscape:pageshadow="2"
     inkscape:window-width="1920"
     inkscape:window-height="1001"
     id="namedview4"
     showgrid="true"
     inkscape:pagecheckerboard="true"
     inkscape:zoom="1"
     inkscape:cx="-153.312"
     inkscape:cy="320.34989"
     inkscape:window-x="-9"
     inkscape:window-y="-9"
     inkscape:window-maximized="1"
     inkscape:current-layer="XMLID_49_">
    <inkscape:grid
       type="xygrid"
       id="grid6199" />
  </sodipodi:namedview>
  <g
     id="XMLID_49_"
     transform="translate(242.36077,35.197006)">
    <rect
       transform="matrix(-0.4639589,0.88585672,-0.99995777,0.00918991,0,0)"
       y="-196.18883"
       x="132.33299"
       height="125.53005"
       width="78.163841"
       id="rect6003"
       style="opacity:1;fill:#b3b3b3;fill-opacity:1;fill-rule:evenodd;stroke:#ffffff;stroke-width:0;stroke-linecap:round;stroke-linejoin:round;stroke-miterlimit:4;stroke-dasharray:none;stroke-dashoffset:0;stroke-opacity:1" />
    <rect
       style="opacity:1;fill:#b3b3b3;fill-opacity:1;fill-rule:evenodd;stroke:#ffffff;stroke-width:0;stroke-linecap:round;stroke-linejoin:round;stroke-miterlimit:4;stroke-dasharray:none;stroke-dashoffset:0;stroke-opacity:1"
       id="rect6005"
       width="78.163841"
       height="125.53005"
       x="-327.81488"
       y="24.976862"
       transform="matrix(-0.4639589,-0.88585672,-0.99995777,-0.00918991,0,0)" />
    <rect
       y="146.65851"
       x="104.31298"
       height="18.642862"
       width="18.642862"
       id="rect6195"
       style="opacity:1;fill:#c9c9c9;fill-opacity:1;fill-rule:evenodd;stroke:#ffffff;stroke-width:0;stroke-linecap:round;stroke-linejoin:round;stroke-miterlimit:4;stroke-dasharray:none;stroke-dashoffset:0;stroke-opacity:1"
       transform="rotate(90)" />
    <rect
       style="opacity:1;fill:#c9c9c9;fill-opacity:1;fill-rule:evenodd;stroke:#ffffff;stroke-width:0;stroke-linecap:round;stroke-linejoin:round;stroke-miterlimit:4;stroke-dasharray:none;stroke-dashoffset:0;stroke-opacity:1"
       id="rect6197"
       width="18.642862"
       height="18.642862"
       x="301.75772"
       y="146.02293"
       transform="rotate(90)" />
    <rect
       style="fill:#c9c9c9;stroke-width:1"
       id="XMLID_12_"
       x="360.60938"
       y="90.100281"
       width="22.598537"
       height="20.998642"
       transform="rotate(90)" />
    <rect
       style="fill:#c9c9c9;stroke-width:1"
       id="XMLID_30_"
       x="400.80673"
       y="73.701317"
       width="22.598537"
       height="20.998642"
       transform="rotate(90)" />
    <polygon
       transform="matrix(0,1.9998706,-1.9998706,0,579.25644,-1978.8392)"
       style="fill:#dadcdb;stroke-width:0.50003237"
       id="XMLID_21_"
       points="1134,366.6 1134,174.9 1153.5,189 1161.7,195 1161.7,355.6 1153.6,366.6 " />
    <polygon
       transform="matrix(0,1.9998706,-1.9998706,0,579.25644,-1978.8392)"
       style="fill:#dadcdb;stroke-width:0.50003237"
       id="XMLID_20_"
       points="1161.7,257.7 1190.5,257.7 1219.4,321.7 1166.3,343.7 1161.7,345.6 " />
    <polygon
       transform="matrix(0,1.9998706,-1.9998706,0,579.25644,-1978.8392)"
       style="fill:#c9c9c9;stroke-width:0.50003237"
       id="XMLID_15_"
       points="1124.1,299.7 1134,305.8 1134,336.8 1115.6,327.6 1124.4,300.8 " />
    <polygon
       transform="matrix(0,1.9998706,-1.9998706,0,579.25644,-1978.8392)"
       style="fill:#c9c9c9;stroke-width:0.50003237"
       id="XMLID_17_"
       points="1166.3,257.7 1166.3,343.7 1161.7,345.6 1161.7,257.7 " />
    <polygon
       transform="matrix(0,1.9998706,-1.9998706,0,579.25644,-1978.8392)"
       style="fill:#e8e8e8;stroke-width:0.50003237"
       id="XMLID_14_"
       points="1153.5,199.6 1161.7,205.5 1161.7,355.6 1153.6,366.6 1153.5,366.6 " />
    <polygon
       transform="matrix(0,1.9998706,-1.9998706,0,579.25644,-1978.8392)"
       style="fill:#c9c9c9;stroke-width:0.50003237"
       id="XMLID_8_"
       points="1164.1,337.6 1163.8,336.8 1207.5,318 1190.1,276.7 1190.9,276.4 1208.7,318.5 " />
    <rect
       style="fill:#c9c9c9;stroke-width:1"
       id="XMLID_40_"
       x="303.21295"
       y="-31.091888"
       width="1.7998835"
       height="167.98914"
       transform="rotate(90)" />
    <rect
       style="fill:#c9c9c9;stroke-width:1"
       id="XMLID_42_"
       x="303.21295"
       y="-68.089493"
       width="1.7998835"
       height="23.998447"
       transform="rotate(90)" />
    <circle
       style="fill:#24c3ff;fill-opacity:1;stroke-width:1"
       id="XMLID_3_"
       cx="419.20544"
       cy="48.702938"
       r="9.8411293"
       transform="rotate(90)" />
    <rect
       style="fill:#24c3ff;stroke-width:0.99999994"
       id="XMLID_9_"
       x="289.01392"
       y="-92.639229"
       width="55.396748"
       height="15"
       transform="rotate(90)" />
    <rect
       style="fill:#24c3ff;stroke-width:1"
       id="XMLID_13_"
       x="289.02176"
       y="-108.23887"
       width="55.387962"
       height="5.5996375"
       transform="rotate(90)" />
    <rect
       style="fill:#c9c9c9;stroke-width:1"
       id="XMLID_57_"
       x="42.229958"
       y="90.100281"
       width="22.598537"
       height="20.998642"
       transform="rotate(90)" />
    <rect
       style="fill:#c9c9c9;stroke-width:1"
       id="XMLID_54_"
       x="2.2325466"
       y="73.701317"
       width="22.598537"
       height="20.998642"
       transform="rotate(90)" />
    <polygon
       transform="matrix(0,1.9998706,-1.9998706,0,579.25644,-1978.8392)"
       style="fill:#dadcdb;stroke-width:0.50003237"
       id="XMLID_47_"
       points="1057.7,366.6 1057.7,174.9 1038.2,189 1030.1,195 1030.1,355.6 1038.1,366.6 " />
    <polygon
       transform="matrix(0,1.9998706,-1.9998706,0,579.25644,-1978.8392)"
       style="fill:#dadcdb;stroke-width:0.50003237"
       id="XMLID_46_"
       points="1030.1,257.7 1001.2,257.7 972.4,321.7 1025.5,343.7 1030.1,345.6 " />
    <polygon
       transform="matrix(0,1.9998706,-1.9998706,0,579.25644,-1978.8392)"
       style="fill:#c9c9c9;stroke-width:0.50003237"
       id="XMLID_45_"
       points="1067.6,299.7 1057.7,305.8 1057.7,336.8 1076.1,327.6 1067.3,300.8 " />
    <polygon
       transform="matrix(0,1.9998706,-1.9998706,0,579.25644,-1978.8392)"
       style="fill:#c9c9c9;stroke-width:0.50003237"
       id="XMLID_44_"
       points="1025.5,257.7 1025.5,343.7 1030.1,345.6 1030.1,257.7 " />
    <polygon
       transform="matrix(0,1.9998706,-1.9998706,0,579.25644,-1978.8392)"
       style="fill:#e8e8e8;stroke-width:0.50003237"
       id="XMLID_43_"
       points="1038.2,199.6 1030.1,205.5 1030.1,355.6 1038.1,366.6 1038.2,366.6 " />
    <polygon
       transform="matrix(0,1.9998706,-1.9998706,0,579.25644,-1978.8392)"
       style="fill:#c9c9c9;stroke-width:0.50003237"
       id="XMLID_41_"
       points="1027.6,337.6 983.1,318.5 1000.8,276.4 1001.6,276.7 984.3,318 1028,336.8 " />
    <rect
       style="fill:#c9c9c9;stroke-width:1"
       id="XMLID_65_"
       x="120.42473"
       y="-31.091888"
       width="1.7998835"
       height="167.98914"
       transform="rotate(90)" />
    <rect
       style="fill:#c9c9c9;stroke-width:1"
       id="XMLID_71_"
       x="120.42473"
       y="-68.089493"
       width="1.7998835"
       height="23.998447"
       transform="rotate(90)" />
    <rect
       style="fill:#24c3ff;stroke-width:0.99999982"
       id="XMLID_36_"
       x="81.216835"
       y="-92.639229"
       width="55.20686"
       height="15"
       transform="rotate(90)" />
    <rect
       style="fill:#24c3ff;stroke-width:1"
       id="XMLID_31_"
       x="81.222832"
       y="-108.23887"
       width="55.207703"
       height="5.5996375"
       transform="rotate(90)" />
    <path
       style="fill:#0083b5;stroke-width:1;fill-opacity:1"
       inkscape:connector-curvature="0"
       id="XMLID_53_"
       d="m -97.50915,6.8277647 c -41.39732,0 -74.79516,2.9998059 -74.79516,6.3995863 0,3.39978 33.59783,6.399586 74.79516,6.399586 z" />
    <path
       d="m -97.448194,9.7813336 c -22.127226,0 -39.978676,1.6034164 -39.978676,3.4206384 0,1.817203 17.95834,3.420619 39.978676,3.420619 z"
       id="path6201"
       inkscape:connector-curvature="0"
       style="fill:#58d1ff;fill-opacity:1;stroke-width:1" />
    <path
       d="m -17.10498,147.42318 137.99107,40.39739 c 5.59964,1.59989 10.19934,4.99967 13.59912,9.39939 3.19979,4.39971 5.19966,9.79936 5.19966,15.59899 0,11.59925 -7.5995,21.79859 -18.59879,24.99838 l -137.991073,40.39739 -93.793927,-30.79801 v -68.99553 z"
       id="XMLID_35_"
       inkscape:connector-curvature="0"
       style="fill:#dadcdb;stroke-width:1" />
    <path
       d="m -17.10498,147.42318 137.99107,40.39739 c 5.59964,1.59989 10.19934,4.99967 13.59912,9.39939 3.19979,4.39971 5.19966,9.79936 5.19966,15.59899 h -250.58378 v -34.59776 z"
       id="XMLID_33_"
       inkscape:connector-curvature="0"
       style="fill:#e8e8e8;stroke-width:1" />
    <rect
       height="5.9996119"
       width="53.996506"
       y="60.902161"
       x="185.82065"
       id="XMLID_11_"
       style="fill:#24c3ff;stroke-width:1"
       transform="rotate(90)" />
    <rect
       height="5.9996119"
       width="53.996506"
       y="45.703129"
       x="185.82065"
       id="XMLID_22_"
       style="fill:#24c3ff;stroke-width:1"
       transform="rotate(90)" />
    <path
       style="fill:#24c3ff;fill-opacity:1;stroke-width:1"
       inkscape:connector-curvature="0"
       id="XMLID_35_-6"
       d="m -1.7498137,167.10011 97.6047847,28.57415 c 3.960764,1.13153 7.214249,3.53637 9.619019,6.64837 2.26329,3.112 3.67786,6.93135 3.67786,11.03348 0,8.20447 -5.37533,15.41881 -13.155428,17.68206 L -1.6083629,259.61232 -67.95133,237.82813 v -48.80244 z" />
    <path
       style="fill:#00abec;fill-opacity:1;stroke-width:1"
       inkscape:connector-curvature="0"
       id="XMLID_33_-9"
       d="M -1.6083629,259.61232 95.996422,231.03817 c 3.960763,-1.13153 7.214268,-3.53637 9.619018,-6.64837 2.26329,-3.112 3.67786,-6.93135 3.67786,-11.03369 H -67.95133 v 24.47202 z" />
    <path
       style="fill:#0083b5;stroke-width:1;fill-opacity:1"
       inkscape:connector-curvature="0"
       id="XMLID_53_-4"
       d="m -113.56907,47.871365 c -41.39732,0 -74.79516,2.999806 -74.79516,6.399586 0,3.39978 33.59783,6.399586 74.79516,6.399586 z" />
    <path
       d="m -113.50811,50.824934 c -22.12723,0 -39.97868,1.603416 -39.97868,3.420638 0,1.817203 17.95834,3.420619 39.97868,3.420619 z"
       id="path6201-4"
       inkscape:connector-curvature="0"
       style="fill:#58d1ff;fill-opacity:1;stroke-width:1" />
    <g
       id="g6573">
      <path
         d="m -167.56558,107.02576 c -41.39732,0 -74.79516,2.99981 -74.79516,6.39959 0,3.39978 33.59783,6.39959 74.79516,6.39959 z"
         id="XMLID_53_-8"
         inkscape:connector-curvature="0"
         style="fill:#0083b5;fill-opacity:1;stroke-width:1" />
      <path
         style="fill:#58d1ff;fill-opacity:1;stroke-width:1"
         inkscape:connector-curvature="0"
         id="path6201-9"
         d="m -167.50462,109.97933 c -22.12723,0 -39.97868,1.60342 -39.97868,3.42064 0,1.8172 17.95834,3.42062 39.97868,3.42062 z" />
    </g>
    <path
       style="fill:#0083b5;stroke-width:1;fill-opacity:1"
       inkscape:connector-curvature="0"
       id="XMLID_53_-7"
       d="m -167.56558,305.01296 c -41.39732,0 -74.79516,2.99981 -74.79516,6.39959 0,3.39978 33.59783,6.39959 74.79516,6.39959 z" />
    <path
       d="m -167.50462,307.96653 c -22.12723,0 -39.97868,1.60342 -39.97868,3.42064 0,1.8172 17.95834,3.42062 39.97868,3.42062 z"
       id="path6201-1"
       inkscape:connector-curvature="0"
       style="fill:#58d1ff;fill-opacity:1;stroke-width:1" />
    <path
       style="fill:#0083b5;stroke-width:1;fill-opacity:1"
       inkscape:connector-curvature="0"
       id="XMLID_53_-6"
       d="m -113.56907,365.85076 c -41.39732,0 -74.79516,2.99981 -74.79516,6.39959 0,3.39978 33.59783,6.39959 74.79516,6.39959 z" />
    <path
       d="m -113.50811,368.80433 c -22.12723,0 -39.97868,1.60342 -39.97868,3.42064 0,1.8172 17.95834,3.42062 39.97868,3.42062 z"
       id="path6201-6"
       inkscape:connector-curvature="0"
       style="fill:#58d1ff;fill-opacity:1;stroke-width:1" />
    <g
       id="g6598">
      <path
         d="m -97.57011,405.84816 c -41.39732,0 -74.79516,2.99981 -74.79516,6.39959 0,3.39978 33.59783,6.39959 74.79516,6.39959 z"
         id="XMLID_53_-9"
         inkscape:connector-curvature="0"
         style="fill:#0083b5;stroke-width:1;fill-opacity:1" />
      <path
         style="fill:#58d1ff;fill-opacity:1;stroke-width:1"
         inkscape:connector-curvature="0"
         id="path6201-0"
         d="m -97.509154,408.80173 c -22.127226,0 -39.978676,1.60342 -39.978676,3.42064 0,1.8172 17.95834,3.42062 39.978676,3.42062 z" />
    </g>
    <circle
       r="9.8411293"
       cy="50.609734"
       cx="7.1292024"
       id="circle6448"
       style="fill:#24c3ff;fill-opacity:1;stroke-width:1"
       transform="rotate(90)" />
  </g>
</svg>
